<svg width="66" height="70" viewBox="0 0 66 70" fill="none" xmlns="http://www.w3.org/2000/svg">
<path d="M64.7188 53.4375L64.264 54.3281L64.2715 54.3319L64.7188 53.4375ZM57.375 49.6875L57.8298 48.7969L57.6155 48.6875H57.375V49.6875ZM55.1875 49.6875V48.6875H54.953L54.7429 48.7917L55.1875 49.6875ZM34.0938 60.1562L33.6492 59.2605L33.6465 59.2618L34.0938 60.1562ZM31.75 60.1562L32.1972 59.2618L32.1946 59.2605L31.75 60.1562ZM10.6562 49.6875L11.1008 48.7917L10.8908 48.6875H10.6562V49.6875ZM8.46875 49.6875V48.6875H8.2282L8.01397 48.7969L8.46875 49.6875ZM1.125 53.4375L1.57223 54.332L1.57978 54.3281L1.125 53.4375ZM64.7188 33.2812L64.264 34.1719L64.2715 34.1757L64.7188 33.2812ZM57.375 29.5312L57.8298 28.6406L57.8222 28.6368L57.375 29.5312ZM55.1875 29.5312L55.6321 30.427L55.6347 30.4257L55.1875 29.5312ZM34.0938 40L33.6492 39.1042L33.6465 39.1056L34.0938 40ZM31.75 40L32.1972 39.1056L32.1946 39.1042L31.75 40ZM10.6562 29.5312L10.209 30.4257L10.2117 30.427L10.6562 29.5312ZM8.46875 29.5312L8.02152 28.6368L8.01397 28.6406L8.46875 29.5312ZM1.125 33.2812L1.57223 34.1757L1.57978 34.1719L1.125 33.2812ZM1.125 15.4688L0.677786 16.3632L0.692628 16.3706L0.707707 16.3775L1.125 15.4688ZM31.75 29.5312L32.1972 28.6368L32.1824 28.6294L32.1673 28.6225L31.75 29.5312ZM34.0938 29.5312L33.6765 28.6225L33.6614 28.6294L33.6465 28.6368L34.0938 29.5312ZM64.7188 15.4688L65.136 16.3775L65.1511 16.3706L65.166 16.3632L64.7188 15.4688ZM64.7188 14.375L65.166 13.4806L65.1511 13.4732L65.136 13.4662L64.7188 14.375ZM34.0938 0.3125L33.6465 1.20693L33.6614 1.21435L33.6765 1.22127L34.0938 0.3125ZM31.75 0.3125L32.1673 1.22127L32.1824 1.21435L32.1972 1.20693L31.75 0.3125ZM1.125 14.375L0.707707 13.4662L0.692628 13.4732L0.677786 13.4806L1.125 14.375ZM65.166 55.4257C65.5886 55.2144 66.1875 54.7599 66.1875 53.9844C66.1875 53.2089 65.5886 52.7544 65.166 52.5431L64.2715 54.3319C64.3458 54.369 64.3398 54.3812 64.3054 54.3404C64.2651 54.2926 64.1875 54.1696 64.1875 53.9844C64.1875 53.7991 64.2651 53.6761 64.3054 53.6283C64.3398 53.5875 64.3458 53.5997 64.2715 53.6368L65.166 55.4257ZM65.1735 52.5469L57.8298 48.7969L56.9202 50.5781L64.264 54.3281L65.1735 52.5469ZM57.375 48.6875C57.3764 48.6875 57.3686 48.6875 57.3492 48.6856C57.3302 48.6837 57.305 48.6805 57.2722 48.6753C57.2032 48.6644 57.1261 48.6492 57.0242 48.6288C56.8626 48.5965 56.5582 48.5312 56.2812 48.5312V50.5312C56.2798 50.5312 56.2876 50.5312 56.307 50.5331C56.3261 50.535 56.3513 50.5382 56.3841 50.5434C56.4531 50.5543 56.5301 50.5696 56.632 50.59C56.7936 50.6223 57.098 50.6875 57.375 50.6875V48.6875ZM56.2812 48.5312C56.0043 48.5312 55.6999 48.5965 55.5383 48.6288C55.4364 48.6492 55.3593 48.6644 55.2903 48.6753C55.2575 48.6805 55.2323 48.6837 55.2133 48.6856C55.1939 48.6875 55.1861 48.6875 55.1875 48.6875V50.6875C55.4645 50.6875 55.7689 50.6223 55.9305 50.59C56.0324 50.5696 56.1094 50.5543 56.1784 50.5434C56.2112 50.5382 56.2364 50.535 56.2555 50.5331C56.2749 50.5312 56.2827 50.5312 56.2812 50.5312V48.5312ZM54.7429 48.7917L33.6492 59.2605L34.5383 61.052L55.6321 50.5833L54.7429 48.7917ZM33.6465 59.2618C33.5435 59.3133 33.4019 59.3706 33.2595 59.4133C33.1898 59.4342 33.1281 59.4492 33.0776 59.4584C33.0245 59.4682 32.9999 59.4688 33 59.4688V61.4688C33.5391 61.4688 34.1719 61.2352 34.541 61.0507L33.6465 59.2618ZM33 59.4688C32.7302 59.4688 32.4161 59.3713 32.1972 59.2618L31.3028 61.0507C31.7089 61.2537 32.3323 61.4688 33 61.4688V59.4688ZM32.1946 59.2605L11.1008 48.7917L10.2117 50.5833L31.3054 61.052L32.1946 59.2605ZM10.6562 48.6875C10.6577 48.6875 10.6499 48.6875 10.6305 48.6856C10.6114 48.6837 10.5862 48.6805 10.5534 48.6753C10.4844 48.6644 10.4074 48.6492 10.3055 48.6288C10.1439 48.5965 9.83946 48.5312 9.5625 48.5312V50.5312C9.56109 50.5312 9.56886 50.5312 9.58829 50.5331C9.60732 50.535 9.63251 50.5382 9.66533 50.5434C9.73431 50.5543 9.81139 50.5696 9.91326 50.59C10.0749 50.6223 10.3793 50.6875 10.6562 50.6875V48.6875ZM9.5625 48.5312C9.28554 48.5312 8.98112 48.5965 8.81951 48.6288C8.71764 48.6492 8.64056 48.6644 8.57158 48.6753C8.53876 48.6805 8.51357 48.6837 8.49454 48.6856C8.47511 48.6875 8.46734 48.6875 8.46875 48.6875V50.6875C8.74571 50.6875 9.05013 50.6223 9.21174 50.59C9.31361 50.5696 9.39069 50.5543 9.45967 50.5434C9.49249 50.5382 9.51768 50.535 9.53671 50.5331C9.55614 50.5312 9.56391 50.5312 9.5625 50.5312V48.5312ZM8.01397 48.7969L0.670223 52.5469L1.57978 54.3281L8.92353 50.5781L8.01397 48.7969ZM0.677786 52.5431C0.255141 52.7544 -0.34375 53.2089 -0.34375 53.9844C-0.34375 54.7599 0.255141 55.2144 0.677786 55.4257L1.57221 53.6368C1.49796 53.5997 1.50398 53.5875 1.53835 53.6283C1.57861 53.6761 1.65625 53.7991 1.65625 53.9844C1.65625 54.1696 1.57861 54.2926 1.53835 54.3404C1.50398 54.3812 1.49796 54.369 1.57221 54.3319L0.677786 52.5431ZM0.677786 55.4257L31.3028 70.7382L32.1972 68.9493L1.57221 53.6368L0.677786 55.4257ZM31.3028 70.7382C31.6235 70.8985 31.9639 70.9526 32.2259 70.9764C32.4943 71.0008 32.776 71 33 71V69C32.7552 69 32.5682 68.9992 32.4069 68.9846C32.2392 68.9693 32.189 68.9452 32.1972 68.9493L31.3028 70.7382ZM33 71C33.1507 71 33.3941 71.0007 33.6464 70.9755C33.8877 70.9514 34.2243 70.8965 34.541 70.7382L33.6465 68.9493C33.6507 68.9473 33.5967 68.9705 33.4474 68.9854C33.309 68.9993 33.1618 69 33 69V71ZM34.541 70.7382L65.166 55.4257L64.2715 53.6368L33.6465 68.9493L34.541 70.7382ZM65.1735 32.3906L57.8298 28.6406L56.9202 30.4219L64.264 34.1719L65.1735 32.3906ZM57.8222 28.6368C57.5056 28.4785 57.169 28.4236 56.9276 28.3995C56.6754 28.3743 56.4319 28.375 56.2812 28.375V30.375C56.4431 30.375 56.5903 30.3757 56.7286 30.3896C56.8779 30.4045 56.9319 30.4277 56.9278 30.4257L57.8222 28.6368ZM56.2812 28.375C56.1306 28.375 55.8871 28.3743 55.6349 28.3995C55.3935 28.4236 55.0569 28.4785 54.7403 28.6368L55.6347 30.4257C55.6306 30.4277 55.6846 30.4045 55.8339 30.3896C55.9722 30.3757 56.1194 30.375 56.2812 30.375V28.375ZM54.7429 28.6355L33.6492 39.1042L34.5383 40.8958L55.6321 30.427L54.7429 28.6355ZM33.6465 39.1056C33.5435 39.1571 33.4019 39.2143 33.2595 39.257C33.1898 39.2779 33.1281 39.2929 33.0776 39.3022C33.0245 39.312 32.9999 39.3125 33 39.3125V41.3125C33.5391 41.3125 34.1719 41.079 34.541 40.8944L33.6465 39.1056ZM33 39.3125C32.7302 39.3125 32.4161 39.215 32.1972 39.1056L31.3028 40.8944C31.7089 41.0975 32.3323 41.3125 33 41.3125V39.3125ZM32.1946 39.1042L11.1008 28.6355L10.2117 30.427L31.3054 40.8958L32.1946 39.1042ZM11.1035 28.6368C10.7868 28.4785 10.4502 28.4236 10.2089 28.3995C9.95662 28.3743 9.71317 28.375 9.5625 28.375V30.375C9.72433 30.375 9.8715 30.3757 10.0099 30.3896C10.1592 30.4045 10.2132 30.4277 10.209 30.4257L11.1035 28.6368ZM9.5625 28.375C9.41183 28.375 9.16838 28.3743 8.91612 28.3995C8.6748 28.4236 8.33818 28.4785 8.02154 28.6368L8.91596 30.4257C8.91182 30.4277 8.96583 30.4045 9.11513 30.3896C9.2535 30.3757 9.40067 30.375 9.5625 30.375V28.375ZM8.01397 28.6406L0.670223 32.3906L1.57978 34.1719L8.92353 30.4219L8.01397 28.6406ZM0.677786 32.3868C0.255141 32.5981 -0.34375 33.0526 -0.34375 33.8281C-0.34375 34.6036 0.255141 35.0581 0.677786 35.2694L1.57221 33.4806C1.49796 33.4434 1.50398 33.4313 1.53835 33.4721C1.57861 33.5199 1.65625 33.6429 1.65625 33.8281C1.65625 34.0134 1.57861 34.1364 1.53835 34.1842C1.50398 34.225 1.49796 34.2128 1.57221 34.1757L0.677786 32.3868ZM0.677786 35.2694L31.3028 50.5819L32.1972 48.7931L1.57221 33.4806L0.677786 35.2694ZM31.3028 50.5819C31.6235 50.7423 31.9639 50.7963 32.2259 50.8201C32.4943 50.8445 32.776 50.8438 33 50.8438V48.8438C32.7552 48.8438 32.5682 48.843 32.4069 48.8283C32.2392 48.8131 32.189 48.789 32.1972 48.7931L31.3028 50.5819ZM33 50.8438C33.1507 50.8438 33.3941 50.8445 33.6464 50.8193C33.8877 50.7951 34.2243 50.7402 34.541 50.5819L33.6465 48.7931C33.6507 48.791 33.5967 48.8143 33.4474 48.8292C33.309 48.843 33.1618 48.8438 33 48.8438V50.8438ZM34.541 50.5819L65.166 35.2694L64.2715 33.4806L33.6465 48.7931L34.541 50.5819ZM65.166 35.2694C65.5886 35.0581 66.1875 34.6036 66.1875 33.8281C66.1875 33.0526 65.5886 32.5981 65.166 32.3868L64.2715 34.1757C64.3458 34.2128 64.3398 34.225 64.3054 34.1842C64.2651 34.1364 64.1875 34.0134 64.1875 33.8281C64.1875 33.6429 64.2651 33.5199 64.3054 33.4721C64.3398 33.4313 64.3458 33.4434 64.2715 33.4806L65.166 35.2694ZM0.707707 16.3775L31.3327 30.44L32.1673 28.6225L1.54229 14.56L0.707707 16.3775ZM31.3028 30.4257C31.6719 30.6102 32.3047 30.8438 32.8438 30.8438V28.8438C32.8439 28.8438 32.8192 28.8432 32.7661 28.8334C32.7157 28.8241 32.6539 28.8092 32.5842 28.7883C32.4419 28.7456 32.3002 28.6883 32.1972 28.6368L31.3028 30.4257ZM32.8438 30.8438C33.5115 30.8438 34.1349 30.6287 34.541 30.4257L33.6465 28.6368C33.4276 28.7463 33.1135 28.8438 32.8438 28.8438V30.8438ZM34.511 30.44L65.136 16.3775L64.3015 14.56L33.6765 28.6225L34.511 30.44ZM65.166 16.3632C65.5886 16.1519 66.1875 15.6974 66.1875 14.9219C66.1875 14.1464 65.5886 13.6919 65.166 13.4806L64.2715 15.2694C64.3458 15.3066 64.3398 15.3187 64.3054 15.2779C64.2651 15.2301 64.1875 15.1071 64.1875 14.9219C64.1875 14.7366 64.2651 14.6136 64.3054 14.5658C64.3398 14.525 64.3458 14.5372 64.2715 14.5743L65.166 16.3632ZM65.136 13.4662L34.511 -0.596272L33.6765 1.22127L64.3015 15.2838L65.136 13.4662ZM34.541 -0.581926C34.1349 -0.784977 33.5115 -1 32.8438 -1V1C33.1135 1 33.4276 1.09748 33.6465 1.20693L34.541 -0.581926ZM32.8438 -1C32.3047 -1 31.6719 -0.766478 31.3028 -0.581926L32.1972 1.20693C32.3002 1.15543 32.4419 1.09819 32.5842 1.05548C32.6539 1.03457 32.7157 1.0196 32.7661 1.01031C32.8192 1.00053 32.8439 1 32.8438 1V-1ZM31.3327 -0.596272L0.707707 13.4662L1.54229 15.2838L32.1673 1.22127L31.3327 -0.596272ZM0.677786 13.4806C0.255141 13.6919 -0.34375 14.1464 -0.34375 14.9219C-0.34375 15.6974 0.255141 16.1519 0.677786 16.3632L1.57221 14.5743C1.49796 14.5372 1.50398 14.525 1.53835 14.5658C1.57861 14.6136 1.65625 14.7366 1.65625 14.9219C1.65625 15.1071 1.57861 15.2301 1.53835 15.2779C1.50398 15.3187 1.49796 15.3066 1.57221 15.2694L0.677786 13.4806Z" fill="#F02937"/>
</svg>
