<svg width="82" height="70" viewBox="0 0 82 70" fill="none" xmlns="http://www.w3.org/2000/svg">
<path d="M0.3125 54.0625V53.0625H-1.42515L-0.552125 54.5649L0.3125 54.0625ZM7.03125 65.625L7.94741 65.2242L7.92454 65.1719L7.89588 65.1226L7.03125 65.625ZM58.75 70V71H60.4837L59.6156 69.4993L58.75 70ZM49.5312 54.0625L50.3969 53.5618L50.1081 53.0625H49.5312V54.0625ZM78.2812 49.6875L77.4134 50.1843L77.4245 50.2037L77.4364 50.2225L78.2812 49.6875ZM52.3438 4.375L51.4614 4.84559L51.4684 4.85879L51.4759 4.87178L52.3438 4.375ZM31.4062 0V-1H29.6764L30.5397 0.499052L31.4062 0ZM71.7188 70L70.8522 70.4991L71.7221 72.0097L72.587 70.4961L71.7188 70ZM77.9688 59.0625L78.837 59.5586L78.8508 59.5345L78.8632 59.5097L77.9688 59.0625ZM42.9688 42.6562V43.6562H44.7048L43.8338 42.1545L42.9688 42.6562ZM24.8438 11.4062L25.7088 10.9045L24.84 9.40664L23.9768 10.9078L24.8438 11.4062ZM6.875 42.6562L6.00809 42.1578L5.14647 43.6562H6.875V42.6562ZM-0.552125 54.5649L6.16662 66.1274L7.89588 65.1226L1.17713 53.5601L-0.552125 54.5649ZM6.11509 66.0258C6.76682 67.5155 8.03157 68.75 9.44264 69.6052C10.8557 70.4616 12.5172 71 14.0625 71V69C12.9515 69 11.6443 68.6009 10.4792 67.8948C9.31218 67.1875 8.38943 66.2345 7.94741 65.2242L6.11509 66.0258ZM14.0625 71H58.75V69H14.0625V71ZM59.6156 69.4993L50.3969 53.5618L48.6656 54.5632L57.8844 70.5007L59.6156 69.4993ZM49.5312 53.0625H0.3125V55.0625H49.5312V53.0625ZM79.1491 49.1907L53.2116 3.87822L51.4759 4.87178L77.4134 50.1843L79.1491 49.1907ZM53.2261 3.90441C52.5028 2.54821 51.2724 1.33542 49.889 0.462795C48.5076 -0.408539 46.879 -1 45.3125 -1V1C46.4022 1 47.6643 1.42416 48.822 2.15439C49.9776 2.88333 50.9347 3.85804 51.4614 4.84559L53.2261 3.90441ZM45.3125 -1H31.4062V1H45.3125V-1ZM30.5397 0.499052L70.8522 70.4991L72.5853 69.5009L32.2728 -0.499052L30.5397 0.499052ZM72.587 70.4961L78.837 59.5586L77.1005 58.5664L70.8505 69.5039L72.587 70.4961ZM78.8632 59.5097C78.8628 59.5104 78.8665 59.5031 78.8775 59.4836C78.8879 59.465 78.9015 59.4415 78.9194 59.4109C78.932 59.3894 79.0244 59.2328 79.0569 59.1773C79.1673 58.9885 79.3079 58.7418 79.4581 58.4468C79.7578 57.8579 80.0985 57.0711 80.3269 56.1357C80.7889 54.2438 80.7821 51.7672 79.1261 49.1525L77.4364 50.2225C80.044 54.3397 77.4765 57.811 77.0743 58.6153L78.8632 59.5097ZM43.8338 42.1545L25.7088 10.9045L23.9787 11.908L42.1037 43.158L43.8338 42.1545ZM23.9768 10.9078L6.00809 42.1578L7.74191 43.1547L25.7107 11.9047L23.9768 10.9078ZM6.875 43.6562H42.9688V41.6562H6.875V43.6562Z" fill="#F02937"/>
</svg>
