<svg width="75" height="70" viewBox="0 0 75 70" fill="none" xmlns="http://www.w3.org/2000/svg">
<path d="M0 0V-1H-1.32374L-0.96192 0.273333L0 0ZM21.4062 53.125L22.031 52.3441L22.0256 52.3399L21.4062 53.125ZM54.8438 58.9062L55.5509 58.1991L55.2147 57.863L54.7417 57.9115L54.8438 58.9062ZM65.9375 70L65.2304 70.7071L65.5233 71H65.9375V70ZM70 70V71H72.4142L70.7071 69.2929L70 70ZM57.3438 57.3438L56.344 57.3642L56.3522 57.7664L56.6366 58.0509L57.3438 57.3438ZM12.3438 7.1875L12.7779 6.28661L12.7687 6.28226L12.3438 7.1875ZM34.8438 32.0312L33.9553 32.4903L33.9586 32.4966L33.962 32.5029L34.8438 32.0312ZM49.0625 52.3438L48.4625 53.1438L48.4692 53.1488L48.476 53.1537L49.0625 52.3438ZM25.625 27.5L24.7344 27.9548L24.7385 27.9627L24.7426 27.9706L25.625 27.5ZM11.5625 8.75L10.9625 9.55L10.9786 9.56208L10.9952 9.57351L11.5625 8.75ZM-0.96192 0.273333C1.06267 7.39834 2.53287 13.5805 3.82173 19.0337C5.10815 24.4766 6.21998 29.2211 7.52137 33.421C10.1393 41.8697 13.5507 48.2016 20.7869 53.9101L22.0256 52.3399C15.1993 46.9547 11.9701 41.021 9.43176 32.829C8.15502 28.7086 7.05982 24.039 5.76811 18.5737C4.47885 13.1188 2.99983 6.89853 0.96192 -0.273333L-0.96192 0.273333ZM20.7816 53.9059C35.248 65.479 49.0915 60.5015 54.9458 59.901L54.7417 57.9115C48.4085 58.561 35.6895 63.271 22.0309 52.3441L20.7816 53.9059ZM54.1366 59.6134L65.2304 70.7071L66.6446 69.2929L55.5509 58.1991L54.1366 59.6134ZM65.9375 71H70V69H65.9375V71ZM70.7071 69.2929L58.0509 56.6366L56.6366 58.0509L69.2929 70.7071L70.7071 69.2929ZM58.3435 57.3233C58.3262 56.4757 58.5583 54.9794 58.8808 52.8299C59.1949 50.7357 59.5732 48.1363 59.7959 45.2302C60.2408 39.4247 60.0709 32.332 57.4992 25.4507C54.9172 18.5418 49.9329 11.8996 40.8556 7.00318C31.8038 2.12049 18.7329 -1 0 -1V1C18.5327 1 31.2431 4.09044 39.9061 8.76342C48.5437 13.4227 53.2078 19.6809 55.6258 26.1509C58.0541 32.6485 58.2358 39.4132 57.8018 45.0774C57.585 47.9062 57.2162 50.4447 56.9029 52.5332C56.5979 54.5665 56.3222 56.2978 56.344 57.3642L58.3435 57.3233ZM11.9096 8.08834C24.5542 14.1821 29.115 23.1219 33.9553 32.4903L35.7322 31.5722C30.885 22.1906 26.0708 12.6929 12.7779 6.28666L11.9096 8.08834ZM33.962 32.5029C35.7699 35.8829 38.2475 40.1702 40.8288 44.0322C43.3853 47.8573 46.1236 51.3896 48.4625 53.1438L49.6625 51.5437C47.6264 50.0167 45.0522 46.7521 42.4916 42.9209C39.9557 39.1267 37.5114 34.8984 35.7255 31.5596L33.962 32.5029ZM48.476 53.1537C49.6267 53.9869 50.7848 54.7589 51.7006 55.3703C52.1621 55.6783 52.5562 55.9417 52.8643 56.1559C53.0179 56.2627 53.1436 56.3528 53.2415 56.4265C53.3453 56.5048 53.3947 56.5475 53.4097 56.5618C53.4197 56.5714 53.3904 56.5456 53.352 56.4915C53.3324 56.4638 53.2931 56.4049 53.2582 56.3198C53.2255 56.24 53.1715 56.0768 53.1924 55.8642C53.2034 55.7528 53.2347 55.6331 53.2947 55.5156C53.3547 55.398 53.4339 55.3017 53.5195 55.2264C53.6832 55.0826 53.8512 55.0313 53.9376 55.0117C54.0294 54.9908 54.1015 54.9894 54.1356 54.9897C54.1735 54.9901 54.1999 54.9932 54.2099 54.9946C54.2286 54.997 54.2261 54.998 54.1927 54.9895C54.1624 54.9818 54.118 54.9692 54.0567 54.9498C53.9337 54.9109 53.7657 54.8522 53.5445 54.7692C52.6529 54.4349 51.064 53.771 48.5206 52.6753L47.7294 54.5122C50.2641 55.604 51.8978 56.2878 52.8422 56.6419C53.275 56.8042 53.6725 56.9411 53.9492 56.9775C54.0151 56.9862 54.1853 57.0064 54.3809 56.962C54.4852 56.9383 54.6667 56.8808 54.8398 56.7287C55.0367 56.5557 55.1576 56.3162 55.1828 56.0599C55.2225 55.6564 55.012 55.3748 54.9829 55.3339C54.9155 55.2389 54.842 55.1644 54.7935 55.1179C54.6098 54.9419 54.3112 54.7259 54.0059 54.5137C53.6791 54.2865 53.2676 54.0116 52.8111 53.7069C51.891 53.0926 50.764 52.3412 49.649 51.5338L48.476 53.1537ZM48.5206 52.6753C43.6643 50.5834 39.4145 46.5524 35.7313 41.8086C32.0547 37.0733 29.001 31.7049 26.5074 27.0294L24.7426 27.9706C27.249 32.6701 30.3672 38.161 34.1515 43.0351C37.9293 47.9007 42.4294 52.2291 47.7294 54.5122L48.5206 52.6753ZM26.5156 27.0452C22.782 19.7335 19.4006 12.9353 12.1298 7.92649L10.9952 9.57351C17.7869 14.2522 20.968 20.579 24.7344 27.9548L26.5156 27.0452ZM11.5625 8.75C12.1625 7.95 12.1626 7.95004 12.1626 7.95006C12.1626 7.95004 12.1626 7.95004 12.1625 7.95C12.1624 7.94992 12.1622 7.94977 12.1619 7.94954C12.1613 7.94907 12.1602 7.94831 12.1588 7.94724C12.156 7.9451 12.1516 7.94177 12.1456 7.93729C12.1338 7.92833 12.1159 7.9148 12.0927 7.89712C12.0462 7.86175 11.9783 7.80984 11.8942 7.74476C11.7259 7.6144 11.4938 7.4322 11.2392 7.22493C10.7146 6.79797 10.1477 6.30753 9.82275 5.94928C9.74441 5.86291 9.69632 5.80168 9.67099 5.76476C9.65882 5.74703 9.65866 5.74465 9.66444 5.75607C9.66886 5.76482 9.69046 5.80818 9.70678 5.87946C9.7227 5.949 9.74343 6.08835 9.69987 6.26187C9.65153 6.45442 9.53917 6.62603 9.38389 6.7468C9.24412 6.85552 9.11109 6.89145 9.04637 6.90401C9.01115 6.91084 8.9841 6.91311 8.96806 6.91393C8.95175 6.91476 8.94222 6.9143 8.94092 6.91424C8.93964 6.91417 8.95723 6.91513 8.99886 6.92286C9.03938 6.93038 9.09473 6.94281 9.16723 6.96244C9.31332 7.002 9.50871 7.06523 9.76289 7.15992C10.2715 7.34942 10.974 7.64924 11.9188 8.09274L12.7687 6.28226C11.7994 5.82733 11.0419 5.50215 10.4611 5.28576C9.9125 5.08137 9.4262 4.93633 9.04248 4.91682C8.88037 4.90858 8.49457 4.90478 8.15601 5.1681C7.69656 5.52545 7.6925 6.04306 7.75721 6.32574C7.81406 6.5741 7.93913 6.77575 8.02196 6.89645C8.11679 7.03463 8.22922 7.16932 8.34131 7.29291C8.77811 7.7745 9.45138 8.34851 9.97664 8.77605C10.2469 8.99603 10.4921 9.18858 10.6698 9.32616C10.7588 9.39505 10.8312 9.45041 10.8817 9.48882C10.9069 9.50803 10.9267 9.52301 10.9404 9.53335C10.9472 9.53852 10.9526 9.54252 10.9563 9.54532C10.9581 9.54671 10.9596 9.54781 10.9606 9.54859C10.9611 9.54898 10.9616 9.54929 10.9619 9.54953C10.962 9.54965 10.9622 9.54976 10.9623 9.54982C10.9624 9.54992 10.9625 9.55 11.5625 8.75Z" fill="#F02937"/>
</svg>
