<svg width="82" height="79" viewBox="0 0 82 79" fill="none" xmlns="http://www.w3.org/2000/svg">
<path d="M20.4688 33.0625L19.6301 33.6072L20.7454 35.3242L21.4139 33.389L20.4688 33.0625ZM41.25 19.9375L41.1824 20.9353L41.1964 20.9361L41.25 19.9375ZM73.2812 21.6562L73.2277 22.6548L74.9446 22.7469L74.1757 21.209L73.2812 21.6562ZM57.9688 5.5625L57.4608 6.42387L57.4677 6.42797L57.4747 6.43196L57.9688 5.5625ZM38.5938 0.25V-0.750093L38.5801 -0.749907L38.5938 0.25ZM8.59375 14.7812L7.80652 14.1646L7.36602 14.7269L7.75514 15.326L8.59375 14.7812ZM74.8438 25.0938L75.7773 24.7353L75.5176 24.0588L74.7938 24.095L74.8438 25.0938ZM52.9688 26.1875L52.9188 25.1887L50.9017 25.2896L52.2047 26.8327L52.9688 26.1875ZM54.0625 50.875L53.2252 50.3282L53.2245 50.3293L54.0625 50.875ZM36.5625 77.75L35.7245 77.2043L34.7918 78.6366L36.4974 78.7479L36.5625 77.75ZM57.9688 72.5938L57.4709 71.7265L57.4661 71.7292L57.9688 72.5938ZM20.7812 46.5L19.8897 46.9531L19.8938 46.9608L20.7812 46.5ZM6.25 17.9062L7.14149 17.4532L6.36664 15.9285L5.41795 17.3516L6.25 17.9062ZM32.6562 77.2812L32.5067 78.27L33.2159 78.3773L33.5449 77.7399L32.6562 77.2812ZM42.6562 57.9062L43.5449 58.3649L44.4664 56.5794L42.4863 56.9208L42.6562 57.9062ZM21.4139 33.389C24.2199 25.2664 32.3653 20.3374 41.1824 20.9352L41.3176 18.9398C31.6972 18.2876 22.6551 23.6711 19.5236 32.736L21.4139 33.389ZM41.1964 20.9361L73.2277 22.6548L73.3348 20.6577L41.3036 18.9389L41.1964 20.9361ZM74.1757 21.209C70.8077 14.4731 65.5139 8.69936 58.4628 4.69304L57.4747 6.43196C64.1736 10.2381 69.1923 15.7144 72.3868 22.1035L74.1757 21.209ZM58.4767 4.70113C52.2253 1.01438 45.3305 -0.75 38.5938 -0.75V1.25C44.982 1.25 51.5247 2.92312 57.4608 6.42387L58.4767 4.70113ZM38.5801 -0.749907C26.898 -0.589878 15.3528 4.53108 7.80652 14.1646L9.38098 15.3979C16.5222 6.28142 27.477 1.40238 38.6074 1.24991L38.5801 -0.749907ZM7.75514 15.326L19.6301 33.6072L21.3074 32.5178L9.43236 14.2365L7.75514 15.326ZM24.625 39C24.625 46.896 30.854 53.125 38.75 53.125V51.125C31.9585 51.125 26.625 45.7915 26.625 39H24.625ZM38.75 53.125C46.4976 53.125 52.7188 46.8882 52.7188 39H50.7188C50.7188 45.7993 45.3774 51.125 38.75 51.125V53.125ZM52.7188 39C52.7188 31.2602 46.4898 25.0312 38.75 25.0312V27.0312C45.3852 27.0312 50.7188 32.3648 50.7188 39H52.7188ZM38.75 25.0312C30.8618 25.0312 24.625 31.2524 24.625 39H26.625C26.625 32.3726 31.9507 27.0312 38.75 27.0312V25.0312ZM74.7938 24.095L52.9188 25.1887L53.0187 27.1863L74.8937 26.0925L74.7938 24.095ZM52.2047 26.8327C57.8305 33.4948 58.0071 43.006 53.2252 50.3282L54.8998 51.4218C60.1179 43.4315 59.982 32.9427 53.7328 25.5423L52.2047 26.8327ZM53.2245 50.3293L35.7245 77.2043L37.4005 78.2957L54.9005 51.4207L53.2245 50.3293ZM36.4974 78.7479C43.887 79.2298 51.5842 77.4624 58.4714 73.4583L57.4661 71.7292C50.9158 75.5376 43.613 77.2077 36.6276 76.7521L36.4974 78.7479ZM58.4666 73.461C75.7792 63.5223 82.6685 42.6844 75.7773 24.7353L73.9102 25.4522C80.4565 42.5031 73.9083 62.2902 57.4709 71.7265L58.4666 73.461ZM21.6727 46.047L7.14149 17.4532L5.35851 18.3593L19.8898 46.953L21.6727 46.047ZM5.41795 17.3516C1.24282 23.6143 -1 30.9958 -1 39H1C1 31.3792 3.13218 24.3857 7.08205 18.4609L5.41795 17.3516ZM-1 39C-1 58.8686 13.4231 75.3834 32.5067 78.27L32.8058 76.2925C14.7019 73.5541 1 57.8814 1 39H-1ZM33.5449 77.7399L43.5449 58.3649L41.7676 57.4476L31.7676 76.8226L33.5449 77.7399ZM42.4863 56.9208C33.8998 58.4012 25.7097 53.8217 21.6687 46.0392L19.8938 46.9608C24.2903 55.4283 33.2877 60.5363 42.8262 58.8917L42.4863 56.9208Z" fill="#F02937"/>
</svg>
