<svg width="142" height="214" viewBox="0 0 142 214" fill="none" xmlns="http://www.w3.org/2000/svg">
<path d="M134 5L114.638 53.8918L75.9149 18.9691L78.6808 72.0515L28.8936 55.2887L56.5532 101.387L4 111.165L45.4894 141.897L4 171.232L56.5532 178.216L28.8936 225.711L78.6808 208.948L75.9149 262.031L113.255 225.711L134 276L153.362 225.711L192.085 262.031L186.553 208.948L239.106 225.711L211.447 179.613L264 171.232L219.745 140.5L264 112.562L211.447 101.387L240.489 55.2887L187.936 72.0515L192.085 18.9691L153.362 55.2887L134 5Z" stroke="#15995F" stroke-width="3"/>
<path d="M134 5L114.638 53.8918L75.9149 18.9691L78.6808 72.0515L28.8936 55.2887L56.5532 101.387L4 111.165L45.4894 141.897L4 171.232L56.5532 178.216L28.8936 225.711L78.6808 208.948L75.9149 262.031L113.255 225.711L134 276L153.362 225.711L192.085 262.031L186.553 208.948L239.106 225.711L211.447 179.613L264 171.232L219.745 140.5L264 112.562L211.447 101.387L240.489 55.2887L187.936 72.0515L192.085 18.9691L153.362 55.2887L134 5Z" stroke="#29F031" stroke-width="3"/>
<path d="M134 5L114.638 53.8918L75.9149 18.9691L78.6808 72.0515L28.8936 55.2887L56.5532 101.387L4 111.165L45.4894 141.897L4 171.232L56.5532 178.216L28.8936 225.711L78.6808 208.948L75.9149 262.031L113.255 225.711L134 276L153.362 225.711L192.085 262.031L186.553 208.948L239.106 225.711L211.447 179.613L264 171.232L219.745 140.5L264 112.562L211.447 101.387L240.489 55.2887L187.936 72.0515L192.085 18.9691L153.362 55.2887L134 5Z" stroke="#2979F0" stroke-width="3"/>
<path d="M134 5L114.638 53.8918L75.9149 18.9691L78.6808 72.0515L28.8936 55.2887L56.5532 101.387L4 111.165L45.4894 141.897L4 171.232L56.5532 178.216L28.8936 225.711L78.6808 208.948L75.9149 262.031L113.255 225.711L134 276L153.362 225.711L192.085 262.031L186.553 208.948L239.106 225.711L211.447 179.613L264 171.232L219.745 140.5L264 112.562L211.447 101.387L240.489 55.2887L187.936 72.0515L192.085 18.9691L153.362 55.2887L134 5Z" stroke="#8129F0" stroke-width="3"/>
<path d="M134 67L123.426 93.5206L102.277 74.5773L103.787 103.371L76.5957 94.2784L91.7021 119.284L63 124.588L85.6596 141.258L63 157.17L91.7021 160.959L76.5957 186.722L103.787 177.629L102.277 206.423L122.67 186.722L134 214L144.574 186.722L165.723 206.423L162.702 177.629L191.404 186.722L176.298 161.716L205 157.17L180.83 140.5L205 125.345L176.298 119.284L192.16 94.2784L163.457 103.371L165.723 74.5773L144.574 94.2784L134 67Z" fill="#F02937"/>
</svg>
