<svg width="225" height="646" viewBox="0 0 225 646" fill="none" xmlns="http://www.w3.org/2000/svg">
<path d="M-86.0002 5L-131.649 119.828L-222.945 37.8079L-216.424 162.478L-333.806 123.108L-268.594 231.374L-392.497 254.34L-294.679 326.517L-392.497 395.414L-268.594 411.818L-333.806 523.364L-216.424 483.995L-222.945 608.665L-134.909 523.364L-86.0002 641.473L-40.3517 523.364L50.9451 608.665L37.9026 483.995L161.805 523.364L96.5935 415.098L220.496 395.414L116.157 323.236L220.496 257.621L96.5935 231.374L165.066 123.108L41.1633 162.478L50.9451 37.8079L-40.3517 123.108L-86.0002 5Z" fill="#222222" stroke="#F02937" stroke-width="3"/>
<path d="M-85.5 172.875L-107.17 227.179L-150.511 188.39L-147.415 247.349L-203.138 228.731L-172.181 279.932L-231 290.793L-184.564 324.927L-231 357.509L-172.181 365.267L-203.138 418.019L-147.415 399.401L-150.511 458.36L-108.718 418.019L-85.5 473.875L-63.8298 418.019L-20.4894 458.36L-26.6809 399.401L32.1383 418.019L1.18085 366.818L60 357.509L10.4681 323.375L60 292.344L1.18085 279.932L33.6862 228.731L-25.133 247.349L-20.4894 188.39L-63.8298 228.731L-85.5 172.875Z" fill="#15995F"/>
<path d="M-85.5 172.875L-107.17 227.179L-150.511 188.39L-147.415 247.349L-203.138 228.731L-172.181 279.932L-231 290.793L-184.564 324.927L-231 357.509L-172.181 365.267L-203.138 418.019L-147.415 399.401L-150.511 458.36L-108.718 418.019L-85.5 473.875L-63.8298 418.019L-20.4894 458.36L-26.6809 399.401L32.1383 418.019L1.18085 366.818L60 357.509L10.4681 323.375L60 292.344L1.18085 279.932L33.6862 228.731L-25.133 247.349L-20.4894 188.39L-63.8298 228.731L-85.5 172.875Z" fill="#29F031"/>
<path d="M-85.5 172.875L-107.17 227.179L-150.511 188.39L-147.415 247.349L-203.138 228.731L-172.181 279.932L-231 290.793L-184.564 324.927L-231 357.509L-172.181 365.267L-203.138 418.019L-147.415 399.401L-150.511 458.36L-108.718 418.019L-85.5 473.875L-63.8298 418.019L-20.4894 458.36L-26.6809 399.401L32.1383 418.019L1.18085 366.818L60 357.509L10.4681 323.375L60 292.344L1.18085 279.932L33.6862 228.731L-25.133 247.349L-20.4894 188.39L-63.8298 228.731L-85.5 172.875Z" fill="#2979F0"/>
<path d="M-85.5 172.875L-107.17 227.179L-150.511 188.39L-147.415 247.349L-203.138 228.731L-172.181 279.932L-231 290.793L-184.564 324.927L-231 357.509L-172.181 365.267L-203.138 418.019L-147.415 399.401L-150.511 458.36L-108.718 418.019L-85.5 473.875L-63.8298 418.019L-20.4894 458.36L-26.6809 399.401L32.1383 418.019L1.18085 366.818L60 357.509L10.4681 323.375L60 292.344L1.18085 279.932L33.6862 228.731L-25.133 247.349L-20.4894 188.39L-63.8298 228.731L-85.5 172.875Z" fill="#8129F0"/>
</svg>
