<svg width="1857" height="2591" viewBox="0 0 1857 2591" fill="none" xmlns="http://www.w3.org/2000/svg">
<path d="M73.62 849.355C48.2154 844.694 23.589 839.492 0 833.885C25.2935 838.781 49.8278 843.941 73.62 849.355C497.987 927.217 1139.51 854.223 790.508 0C969.492 253.144 1393.08 607.545 1655.59 0C1675.48 223.362 1843.53 607.545 2356.61 357.379C2217.4 565.851 2079.19 997.684 2640 1057.25C2381.47 1141.63 1986.71 1426.54 2475.93 1891.13C2162.71 1707.48 1566.1 1590.34 1685.42 2591C1610.85 2119.46 1237.97 1384.84 343.051 2218.73C707.867 1859.37 1149.78 1094.25 73.62 849.355Z" fill="url(#paint0_linear_1101_17)"/>
<defs>
<linearGradient id="paint0_linear_1101_17" x1="1320" y1="0" x2="1320" y2="2591" gradientUnits="userSpaceOnUse">
<stop stop-color="#EBEBEB"/>
<stop offset="1" stop-color="#E6E2E2" stop-opacity="0"/>
</linearGradient>
</defs>
</svg>
