<svg width="40" height="40" viewBox="0 0 40 40" fill="none" xmlns="http://www.w3.org/2000/svg">
<circle cx="20" cy="20" r="20" fill="#8129F0"/>
<g clip-path="url(#clip0_1404_2)">
<path d="M27.5801 24.3431L24.3417 22.1834C23.9307 21.9115 23.3798 22.001 23.076 22.3889L22.1327 23.6018C22.0114 23.7617 21.7911 23.8081 21.6157 23.7106L21.4362 23.6117C20.8414 23.2875 20.1013 22.8838 18.61 21.392C17.1188 19.9003 16.7143 19.1596 16.3901 18.5658L16.2917 18.3864C16.1929 18.211 16.2384 17.9897 16.3983 17.8675L17.6104 16.9244C17.9982 16.6206 18.0878 16.0699 17.8162 15.6588L15.6565 12.4203C15.3782 12.0017 14.8199 11.876 14.389 12.135L13.0348 12.9485C12.6093 13.1986 12.2972 13.6038 12.1638 14.079C11.6761 15.8558 12.043 18.9222 16.5602 23.44C20.1535 27.033 22.8286 27.9993 24.6673 27.9993C25.0904 28.0011 25.5119 27.9461 25.9204 27.8356C26.3957 27.7024 26.8009 27.3902 27.0509 26.9646L27.8652 25.6112C28.1246 25.1802 27.999 24.6215 27.5801 24.3431ZM27.4058 25.3376L26.5934 26.6918C26.4139 26.999 26.1224 27.2249 25.7801 27.3221C24.1398 27.7724 21.2741 27.3994 16.9374 23.0627C12.6007 18.726 12.2278 15.8606 12.6781 14.22C12.7755 13.8773 13.0016 13.5855 13.3092 13.4058L14.6634 12.5933C14.8503 12.4809 15.0927 12.5354 15.2135 12.717L16.3866 14.4784L17.3713 15.9552C17.4892 16.1335 17.4505 16.3725 17.2822 16.5045L16.0699 17.4475C15.7009 17.7296 15.5956 18.2401 15.8227 18.6452L15.919 18.8201C16.2598 19.4451 16.6834 20.2226 18.2301 21.769C19.7768 23.3155 20.5541 23.7392 21.1788 24.0799L21.3539 24.1764C21.759 24.4035 22.2695 24.2982 22.5516 23.9293L23.4947 22.7169C23.6266 22.5488 23.8655 22.5101 24.0439 22.6279L27.2821 24.7875C27.4639 24.9082 27.5184 25.1507 27.4058 25.3376Z" fill="white"/>
<path d="M21.0662 14.668C23.5683 14.6708 25.596 16.6985 25.5988 19.2007C25.5988 19.3479 25.7182 19.4673 25.8655 19.4673C26.0127 19.4673 26.1321 19.3479 26.1321 19.2007C26.129 16.4041 23.8627 14.1378 21.0662 14.1348C20.9189 14.1348 20.7996 14.2541 20.7996 14.4014C20.7996 14.5486 20.9189 14.668 21.0662 14.668Z" fill="white"/>
<path d="M21.0662 16.2676C22.6852 16.2695 23.9972 17.5815 23.9991 19.2005C23.9991 19.3478 24.1185 19.4671 24.2657 19.4671C24.413 19.4671 24.5323 19.3478 24.5323 19.2005C24.5301 17.2871 22.9796 15.7366 21.0662 15.7344C20.9189 15.7344 20.7996 15.8537 20.7996 16.001C20.7996 16.1483 20.9189 16.2676 21.0662 16.2676Z" fill="white"/>
<path d="M21.0662 17.8672C21.8021 17.8681 22.3984 18.4644 22.3993 19.2004C22.3993 19.3476 22.5187 19.467 22.6659 19.467C22.8132 19.467 22.9326 19.3476 22.9326 19.2004C22.9314 18.1701 22.0965 17.3351 21.0662 17.334C20.9189 17.334 20.7996 17.4533 20.7996 17.6006C20.7996 17.7479 20.9189 17.8672 21.0662 17.8672Z" fill="white"/>
</g>
<defs>
<clipPath id="clip0_1404_2">
<rect width="16" height="16" fill="white" transform="translate(12 12)"/>
</clipPath>
</defs>
</svg>
