<svg width="217" height="215" viewBox="0 0 217 215" fill="none" xmlns="http://www.w3.org/2000/svg">
<path d="M216.095 145.448C182.083 137.287 121.592 139.572 151.716 214C137.14 193.19 102.643 164.055 81.2642 214C79.6446 195.638 65.9591 164.055 24.1738 184.621C35.5109 167.483 46.767 131.983 1.09471 127.086C22.1493 120.149 54.2981 96.7276 14.4563 58.5345C39.9648 73.6322 88.5524 83.2621 78.8348 0.999993C84.9083 39.7644 115.276 100.155 188.157 31.6035C157.79 61.7988 120.863 126.841 216.095 145.448Z" stroke="#15995F" stroke-width="3"/>
<path d="M216.095 145.448C182.083 137.287 121.592 139.572 151.716 214C137.14 193.19 102.643 164.055 81.2642 214C79.6446 195.638 65.9591 164.055 24.1738 184.621C35.5109 167.483 46.767 131.983 1.09471 127.086C22.1493 120.149 54.2981 96.7276 14.4563 58.5345C39.9648 73.6322 88.5524 83.2621 78.8348 0.999993C84.9083 39.7644 115.276 100.155 188.157 31.6035C157.79 61.7988 120.863 126.841 216.095 145.448Z" stroke="#29F031" stroke-width="3"/>
<path d="M216.095 145.448C182.083 137.287 121.592 139.572 151.716 214C137.14 193.19 102.643 164.055 81.2642 214C79.6446 195.638 65.9591 164.055 24.1738 184.621C35.5109 167.483 46.767 131.983 1.09471 127.086C22.1493 120.149 54.2981 96.7276 14.4563 58.5345C39.9648 73.6322 88.5524 83.2621 78.8348 0.999993C84.9083 39.7644 115.276 100.155 188.157 31.6035C157.79 61.7988 120.863 126.841 216.095 145.448Z" stroke="#2979F0" stroke-width="3"/>
<path d="M216.095 145.448C182.083 137.287 121.592 139.572 151.716 214C137.14 193.19 102.643 164.055 81.2642 214C79.6446 195.638 65.9591 164.055 24.1738 184.621C35.5109 167.483 46.767 131.983 1.09471 127.086C22.1493 120.149 54.2981 96.7276 14.4563 58.5345C39.9648 73.6322 88.5524 83.2621 78.8348 0.999993C84.9083 39.7644 115.276 100.155 188.157 31.6035C157.79 61.7988 120.863 126.841 216.095 145.448Z" stroke="#8129F0" stroke-width="3"/>
</svg>
