<svg width="191" height="194" viewBox="0 0 191 194" fill="none" xmlns="http://www.w3.org/2000/svg">
<path d="M84.8935 4.95188L75.3825 39.7376L46.2404 18.9138L52.1798 54.8602L16.8571 47.2532L39.286 76.5363L4.09606 87.2201L34.8099 104.978L8.67672 128.136L45.145 128.87L29.8534 163.34L62.6194 148.11L64.7761 184.48L87.5397 156.882L105.56 189.549L114.964 153.811L144.213 175.587L136.382 139.852L173.596 147.247L151.167 117.964L186.464 108.232L153.859 90.6863L181.99 68.2678L145.202 64.6787L161.546 31.0549L126.888 46.4963L125.677 10.0206L101.968 37.7248L84.8935 4.95188Z" fill="#222222" stroke="#F02937" stroke-width="3"/>
</svg>
