<svg width="14" height="16" viewBox="0 0 14 16" fill="none" xmlns="http://www.w3.org/2000/svg">
<path fill-rule="evenodd" clip-rule="evenodd" d="M12.4444 0H4.66667L0 9.84615H6.22222L4.66667 16L14 6.15385H9.33333L12.4444 0ZM11.6667 7.07692H7.61013L10.7212 0.923077H5.47517L1.6835 8.92308H7.64533L6.81938 12.1905L11.6667 7.07692Z" fill="#15995F"/>
<path fill-rule="evenodd" clip-rule="evenodd" d="M12.4444 0H4.66667L0 9.84615H6.22222L4.66667 16L14 6.15385H9.33333L12.4444 0ZM11.6667 7.07692H7.61013L10.7212 0.923077H5.47517L1.6835 8.92308H7.64533L6.81938 12.1905L11.6667 7.07692Z" fill="#29F031"/>
<path fill-rule="evenodd" clip-rule="evenodd" d="M12.4444 0H4.66667L0 9.84615H6.22222L4.66667 16L14 6.15385H9.33333L12.4444 0ZM11.6667 7.07692H7.61013L10.7212 0.923077H5.47517L1.6835 8.92308H7.64533L6.81938 12.1905L11.6667 7.07692Z" fill="#2979F0"/>
<path fill-rule="evenodd" clip-rule="evenodd" d="M12.4444 0H4.66667L0 9.84615H6.22222L4.66667 16L14 6.15385H9.33333L12.4444 0ZM11.6667 7.07692H7.61013L10.7212 0.923077H5.47517L1.6835 8.92308H7.64533L6.81938 12.1905L11.6667 7.07692Z" fill="#8129F0"/>
</svg>
