<svg width="3484" height="563" viewBox="0 0 3484 563" fill="none" xmlns="http://www.w3.org/2000/svg">
<path d="M845.512 0V67.7977H980.046V0H845.512ZM845.512 151.614V562.995H980.046V151.614H845.512ZM2642.22 0.00492355V67.8027H2776.75V0.00492355H2642.22ZM2642.22 151.619V563H2776.75V151.619H2642.22ZM134.543 479.957V460.924V102.086V83.0581H153.375H351.972C430.092 83.0581 490.72 91.4836 531.468 122.423C573.853 154.598 590.079 207.091 590.079 281.502C590.079 355.928 573.858 408.411 531.468 440.597C490.72 471.531 430.087 479.962 351.972 479.962H153.375L134.543 479.957ZM634.9 487.043C699.88 439.085 736.096 369.687 736.096 281.502C736.096 193.323 699.88 123.935 634.9 75.9672C569.259 27.517 472.872 0.00984938 351.972 0.00984938H0V563H351.972C472.867 563 569.259 535.498 634.9 487.043ZM1931.25 479.957V460.924V102.086V83.0581H1950.08H2148.68C2226.78 83.0581 2287.43 91.4836 2328.18 122.423C2370.57 154.598 2386.79 207.091 2386.79 281.502C2386.79 355.928 2370.57 408.411 2328.18 440.597C2287.43 471.531 2226.78 479.962 2148.68 479.962H1950.08L1931.25 479.957ZM2431.61 487.043C2496.58 439.085 2532.79 369.687 2532.79 281.502C2532.79 193.323 2496.58 123.935 2431.61 75.9672C2365.96 27.517 2269.57 0.00984938 2148.69 0.00984938H1796.71V563H2148.69C2269.57 563 2365.96 535.498 2431.61 487.043ZM1687.29 267.882V245.299V152.2H1089.46V234.278H1660.71L1663.95 272.068L1089.46 373.424V461.559V469.566V562.675H1687.3V480.597H1116.03L1112.79 442.808L1687.3 341.436L1687.29 267.882ZM3484 267.882V245.299V152.2H2886.16V234.278H3457.41L3460.65 272.068L2886.16 373.424V461.559V469.566V562.675H3484V480.597H2912.73L2909.49 442.808L3484 341.436L3484 267.882Z" fill="#313131"/>
</svg>
