<svg width="187" height="32" viewBox="0 0 187 32" fill="none" xmlns="http://www.w3.org/2000/svg">
<path d="M45.3962 0.5H53.5401V5.06183H45.3962V0.5ZM45.3962 8.46567H53.5401V31.0799H45.3962V8.46567Z" fill="white" stroke="#242424"/>
<path d="M140.801 0.5H148.945V5.06183H140.801V0.5ZM140.801 8.46567H148.945V31.0799H140.801V8.46567Z" fill="white" stroke="#242424"/>
<path d="M8.64383 25.2168V25.7168H9.14383H19.6897C23.8362 25.7168 26.9014 25.2656 28.9205 23.7488C30.9832 22.1993 31.8329 19.6421 31.8329 15.7899C31.8329 11.9378 30.9832 9.38054 28.9205 7.83103C26.9014 6.31428 23.8362 5.86311 19.6897 5.86311H9.14383H8.64383V6.36311V25.2168ZM40.5863 15.7899C40.5863 20.5811 38.5885 24.3779 35.0079 26.9929C31.4097 29.6209 26.176 31.0799 19.6897 31.0799H0.5V0.5H19.6897C26.176 0.5 31.4097 1.95898 35.0079 4.58693C38.5885 7.20199 40.5863 10.9987 40.5863 15.7899Z" fill="white" stroke="#242424"/>
<path d="M104.049 25.2168V25.7168H104.549H115.095C119.241 25.7168 122.306 25.2656 124.326 23.7488C126.388 22.1993 127.238 19.6421 127.238 15.7899C127.238 11.9378 126.388 9.38054 124.326 7.83103C122.306 6.31428 119.241 5.86311 115.095 5.86311H104.549H104.049V6.36311V25.2168ZM135.991 15.7899C135.991 20.5811 133.994 24.3779 130.413 26.9929C126.815 29.6209 121.581 31.0799 115.095 31.0799H95.905V0.5H115.095C121.581 0.5 126.815 1.95898 130.413 4.58693C133.994 7.20199 135.991 10.9987 135.991 15.7899Z" fill="white" stroke="#242424"/>
<mask id="path-5-inside-1_1219_183" fill="white">
<path fill-rule="evenodd" clip-rule="evenodd" d="M57.8501 7.99609H91.5952V13.8876L91.5952 13.8876V19.7794L60.2608 25.2503H91.5952V31.5629H57.8501V25.6712V25.2503V19.7794L89.1835 14.3087H57.8501V7.99609Z"/>
</mask>
<path fill-rule="evenodd" clip-rule="evenodd" d="M57.8501 7.99609H91.5952V13.8876L91.5952 13.8876V19.7794L60.2608 25.2503H91.5952V31.5629H57.8501V25.6712V25.2503V19.7794L89.1835 14.3087H57.8501V7.99609Z" fill="white"/>
<path d="M91.5952 7.99609H92.5952V6.99609H91.5952V7.99609ZM57.8501 7.99609V6.99609H56.8501V7.99609H57.8501ZM91.5952 13.8876H90.5952V15.0742L91.7646 14.8732L91.5952 13.8876ZM91.5952 13.8876H92.5952V12.7011L91.4258 12.9021L91.5952 13.8876ZM91.5952 19.7794L91.7672 20.7645L92.5952 20.6199V19.7794H91.5952ZM60.2608 25.2503L60.0888 24.2652L60.2608 26.2503V25.2503ZM91.5952 25.2503H92.5952V24.2503H91.5952V25.2503ZM91.5952 31.5629V32.5629H92.5952V31.5629H91.5952ZM57.8501 31.5629H56.8501V32.5629H57.8501V31.5629ZM57.8501 19.7794L57.6781 18.7943L56.8501 18.9389V19.7794H57.8501ZM89.1835 14.3087L89.3555 15.2938L89.1835 13.3087V14.3087ZM57.8501 14.3087H56.8501V15.3087H57.8501V14.3087ZM91.5952 6.99609H57.8501V8.99609H91.5952V6.99609ZM92.5952 13.8876V7.99609H90.5952V13.8876H92.5952ZM91.4258 12.9021L91.4258 12.9021L91.7646 14.8732L91.7646 14.8732L91.4258 12.9021ZM92.5952 19.7794V13.8876H90.5952V19.7794H92.5952ZM60.4328 26.2354L91.7672 20.7645L91.4232 18.7943L60.0888 24.2652L60.4328 26.2354ZM91.5952 24.2503H60.2608V26.2503H91.5952V24.2503ZM92.5952 31.5629V25.2503H90.5952V31.5629H92.5952ZM57.8501 32.5629H91.5952V30.5629H57.8501V32.5629ZM56.8501 25.6712V31.5629H58.8501V25.6712H56.8501ZM56.8501 25.2503V25.6712H58.8501V25.2503H56.8501ZM56.8501 19.7794V25.2503H58.8501V19.7794H56.8501ZM89.0115 13.3236L57.6781 18.7943L58.0221 20.7645L89.3555 15.2938L89.0115 13.3236ZM57.8501 15.3087H89.1835V13.3087H57.8501V15.3087ZM56.8501 7.99609V14.3087H58.8501V7.99609H56.8501Z" fill="#242424" mask="url(#path-5-inside-1_1219_183)"/>
<mask id="path-7-inside-2_1219_183" fill="white">
<path fill-rule="evenodd" clip-rule="evenodd" d="M153.255 7.99609H187V13.8876L187 13.8876V19.7794L155.666 25.2503H187V31.5629H153.255V25.6712V25.2503V19.7794L184.588 14.3087H153.255V7.99609Z"/>
</mask>
<path fill-rule="evenodd" clip-rule="evenodd" d="M153.255 7.99609H187V13.8876L187 13.8876V19.7794L155.666 25.2503H187V31.5629H153.255V25.6712V25.2503V19.7794L184.588 14.3087H153.255V7.99609Z" fill="white"/>
<path d="M187 7.99609H188V6.99609H187V7.99609ZM153.255 7.99609V6.99609H152.255V7.99609H153.255ZM187 13.8876H186V15.0742L187.169 14.8732L187 13.8876ZM187 13.8876H188V12.7011L186.831 12.9021L187 13.8876ZM187 19.7794L187.172 20.7645L188 20.6199V19.7794H187ZM155.666 25.2503L155.494 24.2652L155.666 26.2503V25.2503ZM187 25.2503H188V24.2503H187V25.2503ZM187 31.5629V32.5629H188V31.5629H187ZM153.255 31.5629H152.255V32.5629H153.255V31.5629ZM153.255 19.7794L153.083 18.7943L152.255 18.9389V19.7794H153.255ZM184.588 14.3087L184.76 15.2938L184.588 13.3087V14.3087ZM153.255 14.3087H152.255V15.3087H153.255V14.3087ZM187 6.99609H153.255V8.99609H187V6.99609ZM188 13.8876V7.99609H186V13.8876H188ZM186.831 12.9021L186.831 12.9021L187.169 14.8732L187.169 14.8732L186.831 12.9021ZM188 19.7794V13.8876H186V19.7794H188ZM155.838 26.2354L187.172 20.7645L186.828 18.7943L155.494 24.2652L155.838 26.2354ZM187 24.2503H155.666V26.2503H187V24.2503ZM188 31.5629V25.2503H186V31.5629H188ZM153.255 32.5629H187V30.5629H153.255V32.5629ZM152.255 25.6712V31.5629H154.255V25.6712H152.255ZM152.255 25.2503V25.6712H154.255V25.2503H152.255ZM152.255 19.7794V25.2503H154.255V19.7794H152.255ZM184.416 13.3236L153.083 18.7943L153.427 20.7645L184.76 15.2938L184.416 13.3236ZM153.255 15.3087H184.588V13.3087H153.255V15.3087ZM152.255 7.99609V14.3087H154.255V7.99609H152.255Z" fill="#242424" mask="url(#path-7-inside-2_1219_183)"/>
</svg>
