<svg width="178" height="342" viewBox="0 0 178 342" fill="none" xmlns="http://www.w3.org/2000/svg">
<path d="M345 231.575C290.582 218.548 193.795 222.195 241.994 341C218.672 307.782 163.477 261.276 129.271 341C126.68 311.69 104.783 261.276 37.9265 294.103C56.0659 266.747 74.0757 210.08 0.999977 202.264C34.6874 191.192 86.1254 153.805 22.3785 92.8391C63.1921 116.939 140.932 132.31 125.384 1.00002C135.102 62.8774 183.689 159.276 300.299 49.8506C251.712 98.0498 192.629 201.874 345 231.575Z" stroke="#15995F" stroke-width="3"/>
<path d="M345 231.575C290.582 218.548 193.795 222.195 241.994 341C218.672 307.782 163.477 261.276 129.271 341C126.68 311.69 104.783 261.276 37.9265 294.103C56.0659 266.747 74.0757 210.08 0.999977 202.264C34.6874 191.192 86.1254 153.805 22.3785 92.8391C63.1921 116.939 140.932 132.31 125.384 1.00002C135.102 62.8774 183.689 159.276 300.299 49.8506C251.712 98.0498 192.629 201.874 345 231.575Z" stroke="#29F031" stroke-width="3"/>
<path d="M345 231.575C290.582 218.548 193.795 222.195 241.994 341C218.672 307.782 163.477 261.276 129.271 341C126.68 311.69 104.783 261.276 37.9265 294.103C56.0659 266.747 74.0757 210.08 0.999977 202.264C34.6874 191.192 86.1254 153.805 22.3785 92.8391C63.1921 116.939 140.932 132.31 125.384 1.00002C135.102 62.8774 183.689 159.276 300.299 49.8506C251.712 98.0498 192.629 201.874 345 231.575Z" stroke="#2979F0" stroke-width="3"/>
<path d="M345 231.575C290.582 218.548 193.795 222.195 241.994 341C218.672 307.782 163.477 261.276 129.271 341C126.68 311.69 104.783 261.276 37.9265 294.103C56.0659 266.747 74.0757 210.08 0.999977 202.264C34.6874 191.192 86.1254 153.805 22.3785 92.8391C63.1921 116.939 140.932 132.31 125.384 1.00002C135.102 62.8774 183.689 159.276 300.299 49.8506C251.712 98.0498 192.629 201.874 345 231.575Z" stroke="#8129F0" stroke-width="3"/>
</svg>
