<svg width="78" height="77" viewBox="0 0 78 77" fill="none" xmlns="http://www.w3.org/2000/svg">
<path d="M25 61.6562V60.6562H24.8377L24.6838 60.7076L25 61.6562ZM20.9375 60.4062L20.0431 59.959L19.9375 60.1702V60.4062H20.9375ZM21.7188 61.1875L22.166 60.2931L21.9548 60.1875H21.7188V61.1875ZM22.6562 60.875L23.5507 61.3222L23.6562 61.1111V60.875H22.6562ZM27.9688 60.25V61.25H28.2048L28.416 61.1444L27.9688 60.25ZM28.75 60.7188H27.75V60.9548L27.8556 61.166L28.75 60.7188ZM26.4062 75.875L26.0843 76.8218L26.1674 76.85L26.2542 76.8634L26.4062 75.875ZM29.0625 64.3125H30.0625V63.0755L28.853 63.3347L29.0625 64.3125ZM15.7812 59.625L16.7299 59.3088L16.7235 59.2894L16.7162 59.2703L15.7812 59.625ZM11.5625 54L10.9914 54.8209L11.0719 54.8769L11.1617 54.9162L11.5625 54ZM11.7188 51.5L11.7985 50.5032L11.7587 50.5H11.7188V51.5ZM17.8125 55.5625L18.6835 55.0712L18.6799 55.0649L18.6763 55.0586L17.8125 55.5625ZM29.2188 58.8438L29.6416 59.7499L30.1425 59.5162L30.211 58.9678L29.2188 58.8438ZM31.7188 53.5312L32.3773 54.2838L34.0957 52.7802L31.8253 52.5369L31.7188 53.5312ZM17.8125 27.125L18.5599 27.7894L18.9818 27.3148L18.7316 26.7311L17.8125 27.125ZM18.2812 16.5L17.9939 15.5422L17.5319 15.6808L17.3528 16.1286L18.2812 16.5ZM29.0625 20.7188L28.5039 21.5482L28.8965 21.8126L29.3498 21.6766L29.0625 20.7188ZM48.5938 20.7188L48.3064 21.6766L48.7737 21.8168L49.1718 21.5348L48.5938 20.7188ZM59.375 16.5L60.3035 16.1286L60.1312 15.698L59.6912 15.5513L59.375 16.5ZM59.8438 27.125L58.8822 26.8503L58.7313 27.3787L59.0963 27.7894L59.8438 27.125ZM45.9375 53.5312L45.831 52.5369L43.5845 52.7776L45.2731 54.2787L45.9375 53.5312ZM51.25 75.7188L51.4749 76.6931L51.5197 76.6828L51.5634 76.6684L51.25 75.7188ZM15.1562 54.1562L15.6035 55.0507L15.7486 54.9781L15.8634 54.8634L15.1562 54.1562ZM15.1562 55.0938L14.2618 55.541L14.4109 55.8391L14.709 55.9882L15.1562 55.0938ZM16.0938 55.25L16.541 56.1444L16.6861 56.0719L16.8009 55.9571L16.0938 55.25ZM15.9375 54.3125L16.6446 53.6054L16.5299 53.4906L16.3847 53.4181L15.9375 54.3125ZM13.4375 52.9062L12.7304 52.1991L12.6156 52.3139L12.5431 52.459L13.4375 52.9062ZM14.5312 53.375L15.4257 53.8222L15.5312 53.6111V53.375H14.5312ZM18.75 59.4688L19.4571 58.7616L19.3871 58.6916L19.3047 58.6367L18.75 59.4688ZM19.6875 59.625L18.9804 58.9179L18.8656 59.0326L18.7931 59.1778L19.6875 59.625ZM17.6562 57.4375L18.1035 58.3319L18.2486 58.2594L18.3634 58.1446L17.6562 57.4375ZM17.6562 56.5L18.5507 56.0528L18.4781 55.9076L18.3634 55.7929L17.6562 56.5ZM26.7812 61.1875C26.7812 60.1836 25.8709 59.5625 25 59.5625V61.5625C25.0096 61.5625 24.9704 61.5641 24.9156 61.5171C24.8682 61.4765 24.7812 61.3693 24.7812 61.1875H26.7812ZM25 59.5625C24.1291 59.5625 23.2188 60.1836 23.2188 61.1875H25.2188C25.2188 61.3693 25.1318 61.4765 25.0844 61.5171C25.0296 61.5641 24.9904 61.5625 25 61.5625V59.5625ZM23.2188 61.1875C23.2188 61.6698 23.4554 62.1278 23.8524 62.4114C24.2753 62.7135 24.8098 62.7737 25.3162 62.6049L24.6838 60.7076C24.7214 60.695 24.8653 60.6771 25.0148 60.7839C25.1384 60.8722 25.2188 61.0177 25.2188 61.1875H23.2188ZM25 62.6562C25.321 62.6562 25.7136 62.6067 26.0625 62.4073C26.4657 62.1769 26.7812 61.7517 26.7812 61.1875H24.7812C24.7812 61.0913 24.8077 60.9736 24.8771 60.8626C24.9435 60.7564 25.0228 60.6979 25.0703 60.6708C25.1149 60.6453 25.1372 60.6436 25.1189 60.6474C25.1023 60.6508 25.0637 60.6562 25 60.6562V62.6562ZM19.9375 60.4062C19.9375 60.8527 20.1383 61.2737 20.3998 61.5726C20.6778 61.8903 21.1296 62.1875 21.7188 62.1875V60.1875C21.8391 60.1875 21.9003 60.2503 21.9049 60.2556C21.9085 60.2597 21.9121 60.2645 21.9167 60.2755C21.9196 60.2824 21.9375 60.3259 21.9375 60.4062H19.9375ZM21.2715 62.0819C21.7187 62.3055 22.1982 62.2771 22.5623 62.1557C22.9264 62.0344 23.3271 61.7694 23.5507 61.3222L21.7618 60.4278C21.7972 60.357 21.8398 60.3152 21.8664 60.2941C21.893 60.2731 21.9147 60.2634 21.9299 60.2583C21.945 60.2533 21.9682 60.248 22.0021 60.2489C22.0361 60.2498 22.0952 60.2577 22.166 60.2931L21.2715 62.0819ZM23.6562 60.875C23.6562 60.5506 23.5735 60.1809 23.3333 59.8445C23.0913 59.5058 22.7443 59.2773 22.3475 59.1451L21.715 61.0424C21.7532 61.0552 21.7626 61.0636 21.7549 61.0582C21.746 61.052 21.7263 61.0358 21.7058 61.007C21.6608 60.9441 21.6562 60.8869 21.6562 60.875H23.6562ZM22.3475 59.1451C21.5857 58.8912 20.497 59.0512 20.0431 59.959L21.8319 60.8535C21.7589 60.9995 21.6571 61.0313 21.6545 61.032C21.6438 61.0353 21.6673 61.0265 21.715 61.0424L22.3475 59.1451ZM27.9688 59.25C27.5071 59.25 27.0447 59.4082 26.6952 59.7577C26.3457 60.1072 26.1875 60.5696 26.1875 61.0312H28.1875C28.1875 61.0241 28.1855 61.0959 28.1095 61.172C28.0334 61.248 27.9616 61.25 27.9688 61.25V59.25ZM26.1875 61.0312C26.1875 61.7921 26.7741 62.1819 27.1642 62.312C27.5739 62.4485 28.0322 62.4288 28.4412 62.2924L27.8088 60.3951C27.7491 60.415 27.7386 60.3952 27.7967 60.4146C27.828 60.425 27.9158 60.4603 28.0066 60.5596C28.1086 60.6714 28.1875 60.8386 28.1875 61.0312H26.1875ZM28.4412 62.2924C28.6552 62.2211 29.0291 62.0939 29.3121 61.8581C29.4748 61.7225 29.6758 61.4963 29.7566 61.1596C29.8398 60.8127 29.7593 60.5012 29.6444 60.2715L27.8556 61.166C27.8189 61.0926 27.7578 60.9178 27.8118 60.6929C27.8633 60.4783 27.9862 60.3596 28.0317 60.3216C28.0731 60.2871 28.088 60.2871 28.034 60.3113C27.9857 60.3329 27.9144 60.3598 27.8088 60.3951L28.4412 62.2924ZM29.75 60.7188C29.75 60.0822 29.318 59.6553 29.0066 59.4606C28.6816 59.2575 28.103 59.0648 27.5215 59.3556L28.416 61.1444C28.28 61.2124 28.157 61.2139 28.0851 61.2039C28.0158 61.1943 27.9715 61.1722 27.9466 61.1566C27.9218 61.1411 27.8856 61.113 27.8487 61.0594C27.8131 61.0078 27.75 60.8915 27.75 60.7188H29.75ZM38.125 -0.75C16.0102 -0.75 -1 16.2602 -1 38.375H1C1 17.3648 17.1148 1.25 38.125 1.25V-0.75ZM-1 38.375C-1 56.1407 10.048 71.3694 26.0843 76.8218L26.7282 74.9282C11.5145 69.7556 1 55.2968 1 38.375H-1ZM26.2542 76.8634C27.4922 77.0538 28.4961 76.7872 29.1857 76.1304C29.844 75.5035 30.0625 74.6649 30.0625 74H28.0625C28.0625 74.2726 27.9685 74.5278 27.8064 74.6821C27.6758 74.8065 27.3515 75.0087 26.5583 74.8866L26.2542 76.8634ZM30.0625 74C30.0625 73.9979 30.0625 73.9957 30.0625 73.9935C30.0625 73.9914 30.0625 73.9892 30.0625 73.987C30.0625 73.9848 30.0625 73.9826 30.0625 73.9803C30.0625 73.9781 30.0625 73.9759 30.0625 73.9736C30.0625 73.9713 30.0625 73.9691 30.0625 73.9668C30.0625 73.9645 30.0625 73.9622 30.0625 73.9598C30.0625 73.9575 30.0625 73.9551 30.0625 73.9528C30.0625 73.9504 30.0625 73.9481 30.0625 73.9457C30.0625 73.9433 30.0625 73.9409 30.0625 73.9384C30.0625 73.936 30.0625 73.9336 30.0625 73.9311C30.0625 73.9287 30.0625 73.9262 30.0625 73.9237C30.0625 73.9212 30.0625 73.9187 30.0625 73.9162C30.0625 73.9137 30.0625 73.9112 30.0625 73.9086C30.0625 73.9061 30.0625 73.9035 30.0625 73.9009C30.0625 73.8984 30.0625 73.8958 30.0625 73.8932C30.0625 73.8906 30.0625 73.8879 30.0625 73.8853C30.0625 73.8827 30.0625 73.88 30.0625 73.8773C30.0625 73.8747 30.0625 73.872 30.0625 73.8693C30.0625 73.8666 30.0625 73.8639 30.0625 73.8611C30.0625 73.8584 30.0625 73.8557 30.0625 73.8529C30.0625 73.8501 30.0625 73.8474 30.0625 73.8446C30.0625 73.8418 30.0625 73.839 30.0625 73.8361C30.0625 73.8333 30.0625 73.8305 30.0625 73.8276C30.0625 73.8248 30.0625 73.8219 30.0625 73.819C30.0625 73.8161 30.0625 73.8132 30.0625 73.8103C30.0625 73.8074 30.0625 73.8045 30.0625 73.8016C30.0625 73.7986 30.0625 73.7957 30.0625 73.7927C30.0625 73.7897 30.0625 73.7867 30.0625 73.7837C30.0625 73.7807 30.0625 73.7777 30.0625 73.7747C30.0625 73.7717 30.0625 73.7686 30.0625 73.7655C30.0625 73.7625 30.0625 73.7594 30.0625 73.7563C30.0625 73.7532 30.0625 73.7501 30.0625 73.747C30.0625 73.7439 30.0625 73.7408 30.0625 73.7376C30.0625 73.7345 30.0625 73.7313 30.0625 73.7281C30.0625 73.7249 30.0625 73.7218 30.0625 73.7186C30.0625 73.7153 30.0625 73.7121 30.0625 73.7089C30.0625 73.7057 30.0625 73.7024 30.0625 73.6991C30.0625 73.6959 30.0625 73.6926 30.0625 73.6893C30.0625 73.686 30.0625 73.6827 30.0625 73.6794C30.0625 73.6761 30.0625 73.6727 30.0625 73.6694C30.0625 73.666 30.0625 73.6627 30.0625 73.6593C30.0625 73.6559 30.0625 73.6525 30.0625 73.6491C30.0625 73.6457 30.0625 73.6423 30.0625 73.6389C30.0625 73.6354 30.0625 73.632 30.0625 73.6285C30.0625 73.6251 30.0625 73.6216 30.0625 73.6181C30.0625 73.6146 30.0625 73.6111 30.0625 73.6076C30.0625 73.6041 30.0625 73.6005 30.0625 73.597C30.0625 73.5934 30.0625 73.5899 30.0625 73.5863C30.0625 73.5827 30.0625 73.5791 30.0625 73.5755C30.0625 73.5719 30.0625 73.5683 30.0625 73.5647C30.0625 73.5611 30.0625 73.5574 30.0625 73.5538C30.0625 73.5501 30.0625 73.5464 30.0625 73.5427C30.0625 73.5391 30.0625 73.5354 30.0625 73.5317C30.0625 73.5279 30.0625 73.5242 30.0625 73.5205C30.0625 73.5167 30.0625 73.513 30.0625 73.5092C30.0625 73.5055 30.0625 73.5017 30.0625 73.4979C30.0625 73.4941 30.0625 73.4903 30.0625 73.4865C30.0625 73.4827 30.0625 73.4788 30.0625 73.475C30.0625 73.4711 30.0625 73.4673 30.0625 73.4634C30.0625 73.4595 30.0625 73.4556 30.0625 73.4517C30.0625 73.4478 30.0625 73.4439 30.0625 73.44C30.0625 73.4361 30.0625 73.4321 30.0625 73.4282C30.0625 73.4242 30.0625 73.4202 30.0625 73.4163C30.0625 73.4123 30.0625 73.4083 30.0625 73.4043C30.0625 73.4003 30.0625 73.3963 30.0625 73.3922C30.0625 73.3882 30.0625 73.3842 30.0625 73.3801C30.0625 73.3761 30.0625 73.372 30.0625 73.3679C30.0625 73.3638 30.0625 73.3597 30.0625 73.3556C30.0625 73.3515 30.0625 73.3474 30.0625 73.3432C30.0625 73.3391 30.0625 73.335 30.0625 73.3308C30.0625 73.3266 30.0625 73.3225 30.0625 73.3183C30.0625 73.3141 30.0625 73.3099 30.0625 73.3057C30.0625 73.3015 30.0625 73.2972 30.0625 73.293C30.0625 73.2888 30.0625 73.2845 30.0625 73.2802C30.0625 73.276 30.0625 73.2717 30.0625 73.2674C30.0625 73.2631 30.0625 73.2588 30.0625 73.2545C30.0625 73.2502 30.0625 73.2459 30.0625 73.2415C30.0625 73.2372 30.0625 73.2328 30.0625 73.2285C30.0625 73.2241 30.0625 73.2197 30.0625 73.2154C30.0625 73.211 30.0625 73.2066 30.0625 73.2022C30.0625 73.1977 30.0625 73.1933 30.0625 73.1889C30.0625 73.1844 30.0625 73.18 30.0625 73.1755C30.0625 73.1711 30.0625 73.1666 30.0625 73.1621C30.0625 73.1576 30.0625 73.1531 30.0625 73.1486C30.0625 73.1441 30.0625 73.1396 30.0625 73.135C30.0625 73.1305 30.0625 73.126 30.0625 73.1214C30.0625 73.1168 30.0625 73.1123 30.0625 73.1077C30.0625 73.1031 30.0625 73.0985 30.0625 73.0939C30.0625 73.0893 30.0625 73.0847 30.0625 73.08C30.0625 73.0754 30.0625 73.0708 30.0625 73.0661C30.0625 73.0614 30.0625 73.0568 30.0625 73.0521C30.0625 73.0474 30.0625 73.0427 30.0625 73.038C30.0625 73.0333 30.0625 73.0286 30.0625 73.0239C30.0625 73.0191 30.0625 73.0144 30.0625 73.0097C30.0625 73.0049 30.0625 73.0001 30.0625 72.9954C30.0625 72.9906 30.0625 72.9858 30.0625 72.981C30.0625 72.9762 30.0625 72.9714 30.0625 72.9666C30.0625 72.9618 30.0625 72.9569 30.0625 72.9521C30.0625 72.9473 30.0625 72.9424 30.0625 72.9375C30.0625 72.9327 30.0625 72.9278 30.0625 72.9229C30.0625 72.918 30.0625 72.9131 30.0625 72.9082C30.0625 72.9033 30.0625 72.8984 30.0625 72.8934C30.0625 72.8885 30.0625 72.8835 30.0625 72.8786C30.0625 72.8736 30.0625 72.8687 30.0625 72.8637C30.0625 72.8587 30.0625 72.8537 30.0625 72.8487C30.0625 72.8437 30.0625 72.8387 30.0625 72.8337C30.0625 72.8286 30.0625 72.8236 30.0625 72.8186C30.0625 72.8135 30.0625 72.8085 30.0625 72.8034C30.0625 72.7983 30.0625 72.7932 30.0625 72.7881C30.0625 72.7831 30.0625 72.778 30.0625 72.7728C30.0625 72.7677 30.0625 72.7626 30.0625 72.7575C30.0625 72.7523 30.0625 72.7472 30.0625 72.742C30.0625 72.7369 30.0625 72.7317 30.0625 72.7265C30.0625 72.7213 30.0625 72.7162 30.0625 72.711C30.0625 72.7058 30.0625 72.7005 30.0625 72.6953C30.0625 72.6901 30.0625 72.6849 30.0625 72.6796C30.0625 72.6744 30.0625 72.6691 30.0625 72.6639C30.0625 72.6586 30.0625 72.6533 30.0625 72.648C30.0625 72.6428 30.0625 72.6375 30.0625 72.6321C30.0625 72.6268 30.0625 72.6215 30.0625 72.6162C30.0625 72.6109 30.0625 72.6055 30.0625 72.6002C30.0625 72.5948 30.0625 72.5895 30.0625 72.5841C30.0625 72.5787 30.0625 72.5733 30.0625 72.568C30.0625 72.5626 30.0625 72.5572 30.0625 72.5518C30.0625 72.5463 30.0625 72.5409 30.0625 72.5355C30.0625 72.5301 30.0625 72.5246 30.0625 72.5192C30.0625 72.5137 30.0625 72.5082 30.0625 72.5028C30.0625 72.4973 30.0625 72.4918 30.0625 72.4863C30.0625 72.4808 30.0625 72.4753 30.0625 72.4698C30.0625 72.4643 30.0625 72.4588 30.0625 72.4532C30.0625 72.4477 30.0625 72.4422 30.0625 72.4366C30.0625 72.4311 30.0625 72.4255 30.0625 72.4199C30.0625 72.4144 30.0625 72.4088 30.0625 72.4032C30.0625 72.3976 30.0625 72.392 30.0625 72.3864C30.0625 72.3808 30.0625 72.3751 30.0625 72.3695C30.0625 72.3639 30.0625 72.3582 30.0625 72.3526C30.0625 72.3469 30.0625 72.3413 30.0625 72.3356C30.0625 72.3299 30.0625 72.3242 30.0625 72.3185C30.0625 72.3129 30.0625 72.3071 30.0625 72.3014C30.0625 72.2957 30.0625 72.29 30.0625 72.2843C30.0625 72.2785 30.0625 72.2728 30.0625 72.2671C30.0625 72.2613 30.0625 72.2556 30.0625 72.2498C30.0625 72.244 30.0625 72.2382 30.0625 72.2325C30.0625 72.2267 30.0625 72.2209 30.0625 72.2151C30.0625 72.2093 30.0625 72.2034 30.0625 72.1976C30.0625 72.1918 30.0625 72.186 30.0625 72.1801C30.0625 72.1743 30.0625 72.1684 30.0625 72.1626C30.0625 72.1567 30.0625 72.1508 30.0625 72.145C30.0625 72.1391 30.0625 72.1332 30.0625 72.1273C30.0625 72.1214 30.0625 72.1155 30.0625 72.1096C30.0625 72.1036 30.0625 72.0977 30.0625 72.0918C30.0625 72.0859 30.0625 72.0799 30.0625 72.074C30.0625 72.068 30.0625 72.062 30.0625 72.0561C30.0625 72.0501 30.0625 72.0441 30.0625 72.0381C30.0625 72.0321 30.0625 72.0261 30.0625 72.0201C30.0625 72.0141 30.0625 72.0081 30.0625 72.0021C30.0625 71.9961 30.0625 71.99 30.0625 71.984C30.0625 71.978 30.0625 71.9719 30.0625 71.9658C30.0625 71.9598 30.0625 71.9537 30.0625 71.9476C30.0625 71.9416 30.0625 71.9355 30.0625 71.9294C30.0625 71.9233 30.0625 71.9172 30.0625 71.9111C30.0625 71.905 30.0625 71.8988 30.0625 71.8927C30.0625 71.8866 30.0625 71.8804 30.0625 71.8743C30.0625 71.8682 30.0625 71.862 30.0625 71.8558C30.0625 71.8497 30.0625 71.8435 30.0625 71.8373C30.0625 71.8312 30.0625 71.825 30.0625 71.8188C30.0625 71.8126 30.0625 71.8064 30.0625 71.8002C30.0625 71.7939 30.0625 71.7877 30.0625 71.7815C30.0625 71.7753 30.0625 71.769 30.0625 71.7628C30.0625 71.7565 30.0625 71.7503 30.0625 71.744C30.0625 71.7378 30.0625 71.7315 30.0625 71.7252C30.0625 71.7189 30.0625 71.7126 30.0625 71.7063C30.0625 71.7001 30.0625 71.6937 30.0625 71.6874C30.0625 71.6811 30.0625 71.6748 30.0625 71.6685C30.0625 71.6622 30.0625 71.6558 30.0625 71.6495C30.0625 71.6431 30.0625 71.6368 30.0625 71.6304C30.0625 71.6241 30.0625 71.6177 30.0625 71.6113C30.0625 71.6049 30.0625 71.5986 30.0625 71.5922C30.0625 71.5858 30.0625 71.5794 30.0625 71.573C30.0625 71.5666 30.0625 71.5602 30.0625 71.5537C30.0625 71.5473 30.0625 71.5409 30.0625 71.5345C30.0625 71.528 30.0625 71.5216 30.0625 71.5151C30.0625 71.5087 30.0625 71.5022 30.0625 71.4958C30.0625 71.4893 30.0625 71.4828 30.0625 71.4763C30.0625 71.4698 30.0625 71.4634 30.0625 71.4569C30.0625 71.4504 30.0625 71.4439 30.0625 71.4373C30.0625 71.4308 30.0625 71.4243 30.0625 71.4178C30.0625 71.4113 30.0625 71.4047 30.0625 71.3982C30.0625 71.3916 30.0625 71.3851 30.0625 71.3785C30.0625 71.372 30.0625 71.3654 30.0625 71.3588C30.0625 71.3523 30.0625 71.3457 30.0625 71.3391C30.0625 71.3325 30.0625 71.3259 30.0625 71.3193C30.0625 71.3127 30.0625 71.3061 30.0625 71.2995C30.0625 71.2929 30.0625 71.2863 30.0625 71.2797C30.0625 71.273 30.0625 71.2664 30.0625 71.2598C30.0625 71.2531 30.0625 71.2465 30.0625 71.2398C30.0625 71.2331 30.0625 71.2265 30.0625 71.2198C30.0625 71.2131 30.0625 71.2065 30.0625 71.1998C30.0625 71.1931 30.0625 71.1864 30.0625 71.1797C30.0625 71.173 30.0625 71.1663 30.0625 71.1596C30.0625 71.1529 30.0625 71.1462 30.0625 71.1395C30.0625 71.1327 30.0625 71.126 30.0625 71.1193C30.0625 71.1125 30.0625 71.1058 30.0625 71.099C30.0625 71.0923 30.0625 71.0855 30.0625 71.0788C30.0625 71.072 30.0625 71.0652 30.0625 71.0584C30.0625 71.0517 30.0625 71.0449 30.0625 71.0381C30.0625 71.0313 30.0625 71.0245 30.0625 71.0177C30.0625 71.0109 30.0625 71.0041 30.0625 70.9973C30.0625 70.9904 30.0625 70.9836 30.0625 70.9768C30.0625 70.97 30.0625 70.9631 30.0625 70.9563C30.0625 70.9494 30.0625 70.9426 30.0625 70.9357C30.0625 70.9289 30.0625 70.922 30.0625 70.9152C30.0625 70.9083 30.0625 70.9014 30.0625 70.8945C30.0625 70.8877 30.0625 70.8808 30.0625 70.8739C30.0625 70.867 30.0625 70.8601 30.0625 70.8532C30.0625 70.8463 30.0625 70.8394 30.0625 70.8325C30.0625 70.8255 30.0625 70.8186 30.0625 70.8117C30.0625 70.8048 30.0625 70.7978 30.0625 70.7909C30.0625 70.784 30.0625 70.777 30.0625 70.7701C30.0625 70.7631 30.0625 70.7561 30.0625 70.7492C30.0625 70.7422 30.0625 70.7353 30.0625 70.7283C30.0625 70.7213 30.0625 70.7143 30.0625 70.7073C30.0625 70.7003 30.0625 70.6934 30.0625 70.6864C30.0625 70.6794 30.0625 70.6724 30.0625 70.6653C30.0625 70.6583 30.0625 70.6513 30.0625 70.6443C30.0625 70.6373 30.0625 70.6302 30.0625 70.6232C30.0625 70.6162 30.0625 70.6092 30.0625 70.6021C30.0625 70.5951 30.0625 70.588 30.0625 70.581C30.0625 70.5739 30.0625 70.5668 30.0625 70.5598C30.0625 70.5527 30.0625 70.5456 30.0625 70.5386C30.0625 70.5315 30.0625 70.5244 30.0625 70.5173C30.0625 70.5102 30.0625 70.5032 30.0625 70.4961C30.0625 70.489 30.0625 70.4818 30.0625 70.4747C30.0625 70.4676 30.0625 70.4605 30.0625 70.4534C30.0625 70.4463 30.0625 70.4392 30.0625 70.432C30.0625 70.4249 30.0625 70.4178 30.0625 70.4106C30.0625 70.4035 30.0625 70.3964 30.0625 70.3892C30.0625 70.3821 30.0625 70.3749 30.0625 70.3677C30.0625 70.3606 30.0625 70.3534 30.0625 70.3463C30.0625 70.3391 30.0625 70.3319 30.0625 70.3247C30.0625 70.3176 30.0625 70.3104 30.0625 70.3032C30.0625 70.296 30.0625 70.2888 30.0625 70.2816C30.0625 70.2744 30.0625 70.2672 30.0625 70.26C30.0625 70.2528 30.0625 70.2456 30.0625 70.2383C30.0625 70.2311 30.0625 70.2239 30.0625 70.2167C30.0625 70.2095 30.0625 70.2022 30.0625 70.195C30.0625 70.1878 30.0625 70.1805 30.0625 70.1733C30.0625 70.166 30.0625 70.1588 30.0625 70.1515C30.0625 70.1443 30.0625 70.137 30.0625 70.1297C30.0625 70.1225 30.0625 70.1152 30.0625 70.1079C30.0625 70.1007 30.0625 70.0934 30.0625 70.0861C30.0625 70.0788 30.0625 70.0715 30.0625 70.0642C30.0625 70.057 30.0625 70.0497 30.0625 70.0424C30.0625 70.0351 30.0625 70.0278 30.0625 70.0205C30.0625 70.0132 30.0625 70.0058 30.0625 69.9985C30.0625 69.9912 30.0625 69.9839 30.0625 69.9766C30.0625 69.9692 30.0625 69.9619 30.0625 69.9546C30.0625 69.9472 30.0625 69.9399 30.0625 69.9326C30.0625 69.9252 30.0625 69.9179 30.0625 69.9105C30.0625 69.9032 30.0625 69.8958 30.0625 69.8885C30.0625 69.8811 30.0625 69.8738 30.0625 69.8664C30.0625 69.859 30.0625 69.8517 30.0625 69.8443C30.0625 69.8369 30.0625 69.8295 30.0625 69.8222C30.0625 69.8148 30.0625 69.8074 30.0625 69.8C30.0625 69.7926 30.0625 69.7852 30.0625 69.7778C30.0625 69.7704 30.0625 69.763 30.0625 69.7556C30.0625 69.7482 30.0625 69.7408 30.0625 69.7334C30.0625 69.726 30.0625 69.7186 30.0625 69.7112C30.0625 69.7038 30.0625 69.6963 30.0625 69.6889C30.0625 69.6815 30.0625 69.674 30.0625 69.6666C30.0625 69.6592 30.0625 69.6517 30.0625 69.6443C30.0625 69.6369 30.0625 69.6294 30.0625 69.622C30.0625 69.6145 30.0625 69.6071 30.0625 69.5996C30.0625 69.5922 30.0625 69.5847 30.0625 69.5773C30.0625 69.5698 30.0625 69.5623 30.0625 69.5549C30.0625 69.5474 30.0625 69.5399 30.0625 69.5325C30.0625 69.525 30.0625 69.5175 30.0625 69.51C30.0625 69.5026 30.0625 69.4951 30.0625 69.4876C30.0625 69.4801 30.0625 69.4726 30.0625 69.4651C30.0625 69.4576 30.0625 69.4501 30.0625 69.4426C30.0625 69.4352 30.0625 69.4277 30.0625 69.4202C30.0625 69.4126 30.0625 69.4051 30.0625 69.3976C30.0625 69.3901 30.0625 69.3826 30.0625 69.3751C30.0625 69.3676 30.0625 69.3601 30.0625 69.3525C30.0625 69.345 30.0625 69.3375 30.0625 69.33C30.0625 69.3224 30.0625 69.3149 30.0625 69.3074C30.0625 69.2998 30.0625 69.2923 30.0625 69.2848C30.0625 69.2772 30.0625 69.2697 30.0625 69.2621C30.0625 69.2546 30.0625 69.2471 30.0625 69.2395C30.0625 69.232 30.0625 69.2244 30.0625 69.2169C30.0625 69.2093 30.0625 69.2017 30.0625 69.1942C30.0625 69.1866 30.0625 69.1791 30.0625 69.1715C30.0625 69.1639 30.0625 69.1564 30.0625 69.1488C30.0625 69.1412 30.0625 69.1337 30.0625 69.1261C30.0625 69.1185 30.0625 69.1109 30.0625 69.1034C30.0625 69.0958 30.0625 69.0882 30.0625 69.0806C30.0625 69.073 30.0625 69.0654 30.0625 69.0579C30.0625 69.0503 30.0625 69.0427 30.0625 69.0351C30.0625 69.0275 30.0625 69.0199 30.0625 69.0123C30.0625 69.0047 30.0625 68.9971 30.0625 68.9895C30.0625 68.9819 30.0625 68.9743 30.0625 68.9667C30.0625 68.9591 30.0625 68.9515 30.0625 68.9439C30.0625 68.9363 30.0625 68.9286 30.0625 68.921C30.0625 68.9134 30.0625 68.9058 30.0625 68.8982C30.0625 68.8906 30.0625 68.8829 30.0625 68.8753C30.0625 68.8677 30.0625 68.8601 30.0625 68.8525C30.0625 68.8448 30.0625 68.8372 30.0625 68.8296C30.0625 68.8219 30.0625 68.8143 30.0625 68.8067C30.0625 68.7991 30.0625 68.7914 30.0625 68.7838C30.0625 68.7761 30.0625 68.7685 30.0625 68.7609C30.0625 68.7532 30.0625 68.7456 30.0625 68.738C30.0625 68.7303 30.0625 68.7227 30.0625 68.715C30.0625 68.7074 30.0625 68.6997 30.0625 68.6921C30.0625 68.6844 30.0625 68.6768 30.0625 68.6691C30.0625 68.6615 30.0625 68.6538 30.0625 68.6462C30.0625 68.6385 30.0625 68.6309 30.0625 68.6232C30.0625 68.6155 30.0625 68.6079 30.0625 68.6002C30.0625 68.5926 30.0625 68.5849 30.0625 68.5772C30.0625 68.5696 30.0625 68.5619 30.0625 68.5543C30.0625 68.5466 30.0625 68.5389 30.0625 68.5312C30.0625 68.5236 30.0625 68.5159 30.0625 68.5082C30.0625 68.5006 30.0625 68.4929 30.0625 68.4852C30.0625 68.4776 30.0625 68.4699 30.0625 68.4622C30.0625 68.4545 30.0625 68.4469 30.0625 68.4392C30.0625 68.4315 30.0625 68.4238 30.0625 68.4162C30.0625 68.4085 30.0625 68.4008 30.0625 68.3931C30.0625 68.3854 30.0625 68.3778 30.0625 68.3701C30.0625 68.3624 30.0625 68.3547 30.0625 68.347C30.0625 68.3393 30.0625 68.3317 30.0625 68.324C30.0625 68.3163 30.0625 68.3086 30.0625 68.3009C30.0625 68.2932 30.0625 68.2855 30.0625 68.2778C30.0625 68.2702 30.0625 68.2625 30.0625 68.2548C30.0625 68.2471 30.0625 68.2394 30.0625 68.2317C30.0625 68.224 30.0625 68.2163 30.0625 68.2086C30.0625 68.201 30.0625 68.1933 30.0625 68.1856C30.0625 68.1779 30.0625 68.1702 30.0625 68.1625C30.0625 68.1548 30.0625 68.1471 30.0625 68.1394C30.0625 68.1317 30.0625 68.124 30.0625 68.1163C30.0625 68.1086 30.0625 68.1009 30.0625 68.0932C30.0625 68.0855 30.0625 68.0778 30.0625 68.0701C30.0625 68.0624 30.0625 68.0547 30.0625 68.0471C30.0625 68.0394 30.0625 68.0317 30.0625 68.024C30.0625 68.0163 30.0625 68.0086 30.0625 68.0009C30.0625 67.9932 30.0625 67.9855 30.0625 67.9778C30.0625 67.9701 30.0625 67.9624 30.0625 67.9547C30.0625 67.947 30.0625 67.9393 30.0625 67.9316C30.0625 67.9239 30.0625 67.9162 30.0625 67.9085C30.0625 67.9008 30.0625 67.8931 30.0625 67.8854C30.0625 67.8777 30.0625 67.87 30.0625 67.8623C30.0625 67.8546 30.0625 67.8469 30.0625 67.8392C30.0625 67.8315 30.0625 67.8238 30.0625 67.8161C30.0625 67.8084 30.0625 67.8007 30.0625 67.793C30.0625 67.7853 30.0625 67.7776 30.0625 67.7699C30.0625 67.7622 30.0625 67.7546 30.0625 67.7469C30.0625 67.7392 30.0625 67.7315 30.0625 67.7238C30.0625 67.7161 30.0625 67.7084 30.0625 67.7007C30.0625 67.693 30.0625 67.6853 30.0625 67.6776C30.0625 67.6699 30.0625 67.6622 30.0625 67.6545C30.0625 67.6469 30.0625 67.6392 30.0625 67.6315C30.0625 67.6238 30.0625 67.6161 30.0625 67.6084C30.0625 67.6007 30.0625 67.593 30.0625 67.5853C30.0625 67.5777 30.0625 67.57 30.0625 67.5623C30.0625 67.5546 30.0625 67.5469 30.0625 67.5392C30.0625 67.5315 30.0625 67.5239 30.0625 67.5162C30.0625 67.5085 30.0625 67.5008 30.0625 67.4931C30.0625 67.4855 30.0625 67.4778 30.0625 67.4701C30.0625 67.4624 30.0625 67.4547 30.0625 67.4471C30.0625 67.4394 30.0625 67.4317 30.0625 67.424C30.0625 67.4164 30.0625 67.4087 30.0625 67.401C30.0625 67.3933 30.0625 67.3857 30.0625 67.378C30.0625 67.3703 30.0625 67.3627 30.0625 67.355C30.0625 67.3473 30.0625 67.3397 30.0625 67.332C30.0625 67.3243 30.0625 67.3167 30.0625 67.309C30.0625 67.3013 30.0625 67.2937 30.0625 67.286C30.0625 67.2784 30.0625 67.2707 30.0625 67.263C30.0625 67.2554 30.0625 67.2477 30.0625 67.2401C30.0625 67.2324 30.0625 67.2248 30.0625 67.2171C30.0625 67.2094 30.0625 67.2018 30.0625 67.1942C30.0625 67.1865 30.0625 67.1789 30.0625 67.1712C30.0625 67.1636 30.0625 67.1559 30.0625 67.1483C30.0625 67.1406 30.0625 67.133 30.0625 67.1254C30.0625 67.1177 30.0625 67.1101 30.0625 67.1024C30.0625 67.0948 30.0625 67.0872 30.0625 67.0795C30.0625 67.0719 30.0625 67.0643 30.0625 67.0566C30.0625 67.049 30.0625 67.0414 30.0625 67.0338C30.0625 67.0261 30.0625 67.0185 30.0625 67.0109C30.0625 67.0033 30.0625 66.9956 30.0625 66.988C30.0625 66.9804 30.0625 66.9728 30.0625 66.9652C30.0625 66.9576 30.0625 66.95 30.0625 66.9423C30.0625 66.9347 30.0625 66.9271 30.0625 66.9195C30.0625 66.9119 30.0625 66.9043 30.0625 66.8967C30.0625 66.8891 30.0625 66.8815 30.0625 66.8739C30.0625 66.8663 30.0625 66.8587 30.0625 66.8511C30.0625 66.8435 30.0625 66.8359 30.0625 66.8283C30.0625 66.8208 30.0625 66.8132 30.0625 66.8056C30.0625 66.798 30.0625 66.7904 30.0625 66.7828C30.0625 66.7753 30.0625 66.7677 30.0625 66.7601C30.0625 66.7525 30.0625 66.745 30.0625 66.7374C30.0625 66.7298 30.0625 66.7222 30.0625 66.7147C30.0625 66.7071 30.0625 66.6996 30.0625 66.692C30.0625 66.6844 30.0625 66.6769 30.0625 66.6693C30.0625 66.6618 30.0625 66.6542 30.0625 66.6467C30.0625 66.6391 30.0625 66.6316 30.0625 66.624C30.0625 66.6165 30.0625 66.6089 30.0625 66.6014C30.0625 66.5939 30.0625 66.5863 30.0625 66.5788C30.0625 66.5713 30.0625 66.5637 30.0625 66.5562C30.0625 66.5487 30.0625 66.5411 30.0625 66.5336C30.0625 66.5261 30.0625 66.5186 30.0625 66.5111C30.0625 66.5035 30.0625 66.496 30.0625 66.4885C30.0625 66.481 30.0625 66.4735 30.0625 66.466C30.0625 66.4585 30.0625 66.451 30.0625 66.4435C30.0625 66.436 30.0625 66.4285 30.0625 66.421C30.0625 66.4135 30.0625 66.406 30.0625 66.3985C30.0625 66.391 30.0625 66.3836 30.0625 66.3761C30.0625 66.3686 30.0625 66.3611 30.0625 66.3537C30.0625 66.3462 30.0625 66.3387 30.0625 66.3312C30.0625 66.3238 30.0625 66.3163 30.0625 66.3088C30.0625 66.3014 30.0625 66.2939 30.0625 66.2865C30.0625 66.279 30.0625 66.2716 30.0625 66.2641C30.0625 66.2567 30.0625 66.2492 30.0625 66.2418C30.0625 66.2344 30.0625 66.2269 30.0625 66.2195C30.0625 66.212 30.0625 66.2046 30.0625 66.1972C30.0625 66.1898 30.0625 66.1823 30.0625 66.1749C30.0625 66.1675 30.0625 66.1601 30.0625 66.1527C30.0625 66.1453 30.0625 66.1379 30.0625 66.1305C30.0625 66.123 30.0625 66.1156 30.0625 66.1083C30.0625 66.1009 30.0625 66.0935 30.0625 66.0861C30.0625 66.0787 30.0625 66.0713 30.0625 66.0639C30.0625 66.0565 30.0625 66.0492 30.0625 66.0418C30.0625 66.0344 30.0625 66.027 30.0625 66.0197C30.0625 66.0123 30.0625 66.0049 30.0625 65.9976C30.0625 65.9902 30.0625 65.9829 30.0625 65.9755C30.0625 65.9682 30.0625 65.9608 30.0625 65.9535C30.0625 65.9461 30.0625 65.9388 30.0625 65.9315C30.0625 65.9241 30.0625 65.9168 30.0625 65.9095C30.0625 65.9021 30.0625 65.8948 30.0625 65.8875C30.0625 65.8802 30.0625 65.8729 30.0625 65.8656C30.0625 65.8583 30.0625 65.851 30.0625 65.8437C30.0625 65.8364 30.0625 65.8291 30.0625 65.8218C30.0625 65.8145 30.0625 65.8072 30.0625 65.7999C30.0625 65.7926 30.0625 65.7853 30.0625 65.7781C30.0625 65.7708 30.0625 65.7635 30.0625 65.7563C30.0625 65.749 30.0625 65.7417 30.0625 65.7345C30.0625 65.7272 30.0625 65.72 30.0625 65.7127C30.0625 65.7055 30.0625 65.6982 30.0625 65.691C30.0625 65.6838 30.0625 65.6765 30.0625 65.6693C30.0625 65.6621 30.0625 65.6548 30.0625 65.6476C30.0625 65.6404 30.0625 65.6332 30.0625 65.626C30.0625 65.6188 30.0625 65.6116 30.0625 65.6044C30.0625 65.5972 30.0625 65.59 30.0625 65.5828C30.0625 65.5756 30.0625 65.5684 30.0625 65.5612C30.0625 65.554 30.0625 65.5469 30.0625 65.5397C30.0625 65.5325 30.0625 65.5254 30.0625 65.5182C30.0625 65.511 30.0625 65.5039 30.0625 65.4967C30.0625 65.4896 30.0625 65.4824 30.0625 65.4753C30.0625 65.4681 30.0625 65.461 30.0625 65.4539C30.0625 65.4468 30.0625 65.4396 30.0625 65.4325C30.0625 65.4254 30.0625 65.4183 30.0625 65.4112C30.0625 65.4041 30.0625 65.3969 30.0625 65.3898C30.0625 65.3827 30.0625 65.3757 30.0625 65.3686C30.0625 65.3615 30.0625 65.3544 30.0625 65.3473C30.0625 65.3402 30.0625 65.3332 30.0625 65.3261C30.0625 65.319 30.0625 65.312 30.0625 65.3049C30.0625 65.2979 30.0625 65.2908 30.0625 65.2838C30.0625 65.2767 30.0625 65.2697 30.0625 65.2626C30.0625 65.2556 30.0625 65.2486 30.0625 65.2416C30.0625 65.2345 30.0625 65.2275 30.0625 65.2205C30.0625 65.2135 30.0625 65.2065 30.0625 65.1995C30.0625 65.1925 30.0625 65.1855 30.0625 65.1785C30.0625 65.1715 30.0625 65.1645 30.0625 65.1575C30.0625 65.1506 30.0625 65.1436 30.0625 65.1366C30.0625 65.1297 30.0625 65.1227 30.0625 65.1158C30.0625 65.1088 30.0625 65.1019 30.0625 65.0949C30.0625 65.088 30.0625 65.081 30.0625 65.0741C30.0625 65.0672 30.0625 65.0602 30.0625 65.0533C30.0625 65.0464 30.0625 65.0395 30.0625 65.0326C30.0625 65.0257 30.0625 65.0188 30.0625 65.0119C30.0625 65.005 30.0625 64.9981 30.0625 64.9912C30.0625 64.9843 30.0625 64.9775 30.0625 64.9706C30.0625 64.9637 30.0625 64.9569 30.0625 64.95C30.0625 64.9432 30.0625 64.9363 30.0625 64.9295C30.0625 64.9226 30.0625 64.9158 30.0625 64.9089C30.0625 64.9021 30.0625 64.8953 30.0625 64.8885C30.0625 64.8817 30.0625 64.8748 30.0625 64.868C30.0625 64.8612 30.0625 64.8544 30.0625 64.8476C30.0625 64.8408 30.0625 64.8341 30.0625 64.8273C30.0625 64.8205 30.0625 64.8137 30.0625 64.807C30.0625 64.8002 30.0625 64.7934 30.0625 64.7867C30.0625 64.7799 30.0625 64.7732 30.0625 64.7664C30.0625 64.7597 30.0625 64.753 30.0625 64.7462C30.0625 64.7395 30.0625 64.7328 30.0625 64.7261C30.0625 64.7194 30.0625 64.7126 30.0625 64.7059C30.0625 64.6992 30.0625 64.6926 30.0625 64.6859C30.0625 64.6792 30.0625 64.6725 30.0625 64.6658C30.0625 64.6592 30.0625 64.6525 30.0625 64.6458C30.0625 64.6392 30.0625 64.6325 30.0625 64.6259C30.0625 64.6192 30.0625 64.6126 30.0625 64.606C30.0625 64.5993 30.0625 64.5927 30.0625 64.5861C30.0625 64.5795 30.0625 64.5729 30.0625 64.5663C30.0625 64.5597 30.0625 64.5531 30.0625 64.5465C30.0625 64.5399 30.0625 64.5333 30.0625 64.5267C30.0625 64.5202 30.0625 64.5136 30.0625 64.507C30.0625 64.5005 30.0625 64.4939 30.0625 64.4874C30.0625 64.4808 30.0625 64.4743 30.0625 64.4678C30.0625 64.4612 30.0625 64.4547 30.0625 64.4482C30.0625 64.4417 30.0625 64.4352 30.0625 64.4287C30.0625 64.4222 30.0625 64.4157 30.0625 64.4092C30.0625 64.4027 30.0625 64.3962 30.0625 64.3898C30.0625 64.3833 30.0625 64.3768 30.0625 64.3704C30.0625 64.3639 30.0625 64.3575 30.0625 64.351C30.0625 64.3446 30.0625 64.3382 30.0625 64.3317C30.0625 64.3253 30.0625 64.3189 30.0625 64.3125H28.0625C28.0625 64.3189 28.0625 64.3253 28.0625 64.3317C28.0625 64.3382 28.0625 64.3446 28.0625 64.351C28.0625 64.3575 28.0625 64.3639 28.0625 64.3704C28.0625 64.3768 28.0625 64.3833 28.0625 64.3898C28.0625 64.3962 28.0625 64.4027 28.0625 64.4092C28.0625 64.4157 28.0625 64.4222 28.0625 64.4287C28.0625 64.4352 28.0625 64.4417 28.0625 64.4482C28.0625 64.4547 28.0625 64.4612 28.0625 64.4678C28.0625 64.4743 28.0625 64.4808 28.0625 64.4874C28.0625 64.4939 28.0625 64.5005 28.0625 64.507C28.0625 64.5136 28.0625 64.5202 28.0625 64.5267C28.0625 64.5333 28.0625 64.5399 28.0625 64.5465C28.0625 64.5531 28.0625 64.5597 28.0625 64.5663C28.0625 64.5729 28.0625 64.5795 28.0625 64.5861C28.0625 64.5927 28.0625 64.5993 28.0625 64.606C28.0625 64.6126 28.0625 64.6192 28.0625 64.6259C28.0625 64.6325 28.0625 64.6392 28.0625 64.6458C28.0625 64.6525 28.0625 64.6592 28.0625 64.6658C28.0625 64.6725 28.0625 64.6792 28.0625 64.6859C28.0625 64.6926 28.0625 64.6992 28.0625 64.7059C28.0625 64.7126 28.0625 64.7194 28.0625 64.7261C28.0625 64.7328 28.0625 64.7395 28.0625 64.7462C28.0625 64.753 28.0625 64.7597 28.0625 64.7664C28.0625 64.7732 28.0625 64.7799 28.0625 64.7867C28.0625 64.7934 28.0625 64.8002 28.0625 64.807C28.0625 64.8137 28.0625 64.8205 28.0625 64.8273C28.0625 64.8341 28.0625 64.8408 28.0625 64.8476C28.0625 64.8544 28.0625 64.8612 28.0625 64.868C28.0625 64.8748 28.0625 64.8817 28.0625 64.8885C28.0625 64.8953 28.0625 64.9021 28.0625 64.9089C28.0625 64.9158 28.0625 64.9226 28.0625 64.9295C28.0625 64.9363 28.0625 64.9432 28.0625 64.95C28.0625 64.9569 28.0625 64.9637 28.0625 64.9706C28.0625 64.9775 28.0625 64.9843 28.0625 64.9912C28.0625 64.9981 28.0625 65.005 28.0625 65.0119C28.0625 65.0188 28.0625 65.0257 28.0625 65.0326C28.0625 65.0395 28.0625 65.0464 28.0625 65.0533C28.0625 65.0602 28.0625 65.0672 28.0625 65.0741C28.0625 65.081 28.0625 65.088 28.0625 65.0949C28.0625 65.1019 28.0625 65.1088 28.0625 65.1158C28.0625 65.1227 28.0625 65.1297 28.0625 65.1366C28.0625 65.1436 28.0625 65.1506 28.0625 65.1575C28.0625 65.1645 28.0625 65.1715 28.0625 65.1785C28.0625 65.1855 28.0625 65.1925 28.0625 65.1995C28.0625 65.2065 28.0625 65.2135 28.0625 65.2205C28.0625 65.2275 28.0625 65.2345 28.0625 65.2416C28.0625 65.2486 28.0625 65.2556 28.0625 65.2626C28.0625 65.2697 28.0625 65.2767 28.0625 65.2838C28.0625 65.2908 28.0625 65.2979 28.0625 65.3049C28.0625 65.312 28.0625 65.319 28.0625 65.3261C28.0625 65.3332 28.0625 65.3402 28.0625 65.3473C28.0625 65.3544 28.0625 65.3615 28.0625 65.3686C28.0625 65.3757 28.0625 65.3827 28.0625 65.3898C28.0625 65.3969 28.0625 65.4041 28.0625 65.4112C28.0625 65.4183 28.0625 65.4254 28.0625 65.4325C28.0625 65.4396 28.0625 65.4468 28.0625 65.4539C28.0625 65.461 28.0625 65.4681 28.0625 65.4753C28.0625 65.4824 28.0625 65.4896 28.0625 65.4967C28.0625 65.5039 28.0625 65.511 28.0625 65.5182C28.0625 65.5254 28.0625 65.5325 28.0625 65.5397C28.0625 65.5469 28.0625 65.554 28.0625 65.5612C28.0625 65.5684 28.0625 65.5756 28.0625 65.5828C28.0625 65.59 28.0625 65.5972 28.0625 65.6044C28.0625 65.6116 28.0625 65.6188 28.0625 65.626C28.0625 65.6332 28.0625 65.6404 28.0625 65.6476C28.0625 65.6548 28.0625 65.6621 28.0625 65.6693C28.0625 65.6765 28.0625 65.6838 28.0625 65.691C28.0625 65.6982 28.0625 65.7055 28.0625 65.7127C28.0625 65.72 28.0625 65.7272 28.0625 65.7345C28.0625 65.7417 28.0625 65.749 28.0625 65.7563C28.0625 65.7635 28.0625 65.7708 28.0625 65.7781C28.0625 65.7853 28.0625 65.7926 28.0625 65.7999C28.0625 65.8072 28.0625 65.8145 28.0625 65.8218C28.0625 65.8291 28.0625 65.8364 28.0625 65.8437C28.0625 65.851 28.0625 65.8583 28.0625 65.8656C28.0625 65.8729 28.0625 65.8802 28.0625 65.8875C28.0625 65.8948 28.0625 65.9021 28.0625 65.9095C28.0625 65.9168 28.0625 65.9241 28.0625 65.9315C28.0625 65.9388 28.0625 65.9461 28.0625 65.9535C28.0625 65.9608 28.0625 65.9682 28.0625 65.9755C28.0625 65.9829 28.0625 65.9902 28.0625 65.9976C28.0625 66.0049 28.0625 66.0123 28.0625 66.0197C28.0625 66.027 28.0625 66.0344 28.0625 66.0418C28.0625 66.0492 28.0625 66.0565 28.0625 66.0639C28.0625 66.0713 28.0625 66.0787 28.0625 66.0861C28.0625 66.0935 28.0625 66.1009 28.0625 66.1083C28.0625 66.1156 28.0625 66.123 28.0625 66.1305C28.0625 66.1379 28.0625 66.1453 28.0625 66.1527C28.0625 66.1601 28.0625 66.1675 28.0625 66.1749C28.0625 66.1823 28.0625 66.1898 28.0625 66.1972C28.0625 66.2046 28.0625 66.212 28.0625 66.2195C28.0625 66.2269 28.0625 66.2344 28.0625 66.2418C28.0625 66.2492 28.0625 66.2567 28.0625 66.2641C28.0625 66.2716 28.0625 66.279 28.0625 66.2865C28.0625 66.2939 28.0625 66.3014 28.0625 66.3088C28.0625 66.3163 28.0625 66.3238 28.0625 66.3312C28.0625 66.3387 28.0625 66.3462 28.0625 66.3537C28.0625 66.3611 28.0625 66.3686 28.0625 66.3761C28.0625 66.3836 28.0625 66.391 28.0625 66.3985C28.0625 66.406 28.0625 66.4135 28.0625 66.421C28.0625 66.4285 28.0625 66.436 28.0625 66.4435C28.0625 66.451 28.0625 66.4585 28.0625 66.466C28.0625 66.4735 28.0625 66.481 28.0625 66.4885C28.0625 66.496 28.0625 66.5035 28.0625 66.5111C28.0625 66.5186 28.0625 66.5261 28.0625 66.5336C28.0625 66.5411 28.0625 66.5487 28.0625 66.5562C28.0625 66.5637 28.0625 66.5713 28.0625 66.5788C28.0625 66.5863 28.0625 66.5939 28.0625 66.6014C28.0625 66.6089 28.0625 66.6165 28.0625 66.624C28.0625 66.6316 28.0625 66.6391 28.0625 66.6467C28.0625 66.6542 28.0625 66.6618 28.0625 66.6693C28.0625 66.6769 28.0625 66.6844 28.0625 66.692C28.0625 66.6996 28.0625 66.7071 28.0625 66.7147C28.0625 66.7222 28.0625 66.7298 28.0625 66.7374C28.0625 66.745 28.0625 66.7525 28.0625 66.7601C28.0625 66.7677 28.0625 66.7753 28.0625 66.7828C28.0625 66.7904 28.0625 66.798 28.0625 66.8056C28.0625 66.8132 28.0625 66.8208 28.0625 66.8283C28.0625 66.8359 28.0625 66.8435 28.0625 66.8511C28.0625 66.8587 28.0625 66.8663 28.0625 66.8739C28.0625 66.8815 28.0625 66.8891 28.0625 66.8967C28.0625 66.9043 28.0625 66.9119 28.0625 66.9195C28.0625 66.9271 28.0625 66.9347 28.0625 66.9423C28.0625 66.95 28.0625 66.9576 28.0625 66.9652C28.0625 66.9728 28.0625 66.9804 28.0625 66.988C28.0625 66.9956 28.0625 67.0033 28.0625 67.0109C28.0625 67.0185 28.0625 67.0261 28.0625 67.0338C28.0625 67.0414 28.0625 67.049 28.0625 67.0566C28.0625 67.0643 28.0625 67.0719 28.0625 67.0795C28.0625 67.0872 28.0625 67.0948 28.0625 67.1024C28.0625 67.1101 28.0625 67.1177 28.0625 67.1254C28.0625 67.133 28.0625 67.1406 28.0625 67.1483C28.0625 67.1559 28.0625 67.1636 28.0625 67.1712C28.0625 67.1789 28.0625 67.1865 28.0625 67.1942C28.0625 67.2018 28.0625 67.2094 28.0625 67.2171C28.0625 67.2248 28.0625 67.2324 28.0625 67.2401C28.0625 67.2477 28.0625 67.2554 28.0625 67.263C28.0625 67.2707 28.0625 67.2784 28.0625 67.286C28.0625 67.2937 28.0625 67.3013 28.0625 67.309C28.0625 67.3167 28.0625 67.3243 28.0625 67.332C28.0625 67.3397 28.0625 67.3473 28.0625 67.355C28.0625 67.3627 28.0625 67.3703 28.0625 67.378C28.0625 67.3857 28.0625 67.3933 28.0625 67.401C28.0625 67.4087 28.0625 67.4164 28.0625 67.424C28.0625 67.4317 28.0625 67.4394 28.0625 67.4471C28.0625 67.4547 28.0625 67.4624 28.0625 67.4701C28.0625 67.4778 28.0625 67.4855 28.0625 67.4931C28.0625 67.5008 28.0625 67.5085 28.0625 67.5162C28.0625 67.5239 28.0625 67.5315 28.0625 67.5392C28.0625 67.5469 28.0625 67.5546 28.0625 67.5623C28.0625 67.57 28.0625 67.5777 28.0625 67.5853C28.0625 67.593 28.0625 67.6007 28.0625 67.6084C28.0625 67.6161 28.0625 67.6238 28.0625 67.6315C28.0625 67.6392 28.0625 67.6469 28.0625 67.6545C28.0625 67.6622 28.0625 67.6699 28.0625 67.6776C28.0625 67.6853 28.0625 67.693 28.0625 67.7007C28.0625 67.7084 28.0625 67.7161 28.0625 67.7238C28.0625 67.7315 28.0625 67.7392 28.0625 67.7469C28.0625 67.7546 28.0625 67.7622 28.0625 67.7699C28.0625 67.7776 28.0625 67.7853 28.0625 67.793C28.0625 67.8007 28.0625 67.8084 28.0625 67.8161C28.0625 67.8238 28.0625 67.8315 28.0625 67.8392C28.0625 67.8469 28.0625 67.8546 28.0625 67.8623C28.0625 67.87 28.0625 67.8777 28.0625 67.8854C28.0625 67.8931 28.0625 67.9008 28.0625 67.9085C28.0625 67.9162 28.0625 67.9239 28.0625 67.9316C28.0625 67.9393 28.0625 67.947 28.0625 67.9547C28.0625 67.9624 28.0625 67.9701 28.0625 67.9778C28.0625 67.9855 28.0625 67.9932 28.0625 68.0009C28.0625 68.0086 28.0625 68.0163 28.0625 68.024C28.0625 68.0317 28.0625 68.0394 28.0625 68.0471C28.0625 68.0547 28.0625 68.0624 28.0625 68.0701C28.0625 68.0778 28.0625 68.0855 28.0625 68.0932C28.0625 68.1009 28.0625 68.1086 28.0625 68.1163C28.0625 68.124 28.0625 68.1317 28.0625 68.1394C28.0625 68.1471 28.0625 68.1548 28.0625 68.1625C28.0625 68.1702 28.0625 68.1779 28.0625 68.1856C28.0625 68.1933 28.0625 68.201 28.0625 68.2086C28.0625 68.2163 28.0625 68.224 28.0625 68.2317C28.0625 68.2394 28.0625 68.2471 28.0625 68.2548C28.0625 68.2625 28.0625 68.2702 28.0625 68.2778C28.0625 68.2855 28.0625 68.2932 28.0625 68.3009C28.0625 68.3086 28.0625 68.3163 28.0625 68.324C28.0625 68.3317 28.0625 68.3393 28.0625 68.347C28.0625 68.3547 28.0625 68.3624 28.0625 68.3701C28.0625 68.3778 28.0625 68.3854 28.0625 68.3931C28.0625 68.4008 28.0625 68.4085 28.0625 68.4162C28.0625 68.4238 28.0625 68.4315 28.0625 68.4392C28.0625 68.4469 28.0625 68.4545 28.0625 68.4622C28.0625 68.4699 28.0625 68.4776 28.0625 68.4852C28.0625 68.4929 28.0625 68.5006 28.0625 68.5082C28.0625 68.5159 28.0625 68.5236 28.0625 68.5312C28.0625 68.5389 28.0625 68.5466 28.0625 68.5543C28.0625 68.5619 28.0625 68.5696 28.0625 68.5772C28.0625 68.5849 28.0625 68.5926 28.0625 68.6002C28.0625 68.6079 28.0625 68.6155 28.0625 68.6232C28.0625 68.6309 28.0625 68.6385 28.0625 68.6462C28.0625 68.6538 28.0625 68.6615 28.0625 68.6691C28.0625 68.6768 28.0625 68.6844 28.0625 68.6921C28.0625 68.6997 28.0625 68.7074 28.0625 68.715C28.0625 68.7227 28.0625 68.7303 28.0625 68.738C28.0625 68.7456 28.0625 68.7532 28.0625 68.7609C28.0625 68.7685 28.0625 68.7761 28.0625 68.7838C28.0625 68.7914 28.0625 68.7991 28.0625 68.8067C28.0625 68.8143 28.0625 68.8219 28.0625 68.8296C28.0625 68.8372 28.0625 68.8448 28.0625 68.8525C28.0625 68.8601 28.0625 68.8677 28.0625 68.8753C28.0625 68.8829 28.0625 68.8906 28.0625 68.8982C28.0625 68.9058 28.0625 68.9134 28.0625 68.921C28.0625 68.9286 28.0625 68.9363 28.0625 68.9439C28.0625 68.9515 28.0625 68.9591 28.0625 68.9667C28.0625 68.9743 28.0625 68.9819 28.0625 68.9895C28.0625 68.9971 28.0625 69.0047 28.0625 69.0123C28.0625 69.0199 28.0625 69.0275 28.0625 69.0351C28.0625 69.0427 28.0625 69.0503 28.0625 69.0579C28.0625 69.0654 28.0625 69.073 28.0625 69.0806C28.0625 69.0882 28.0625 69.0958 28.0625 69.1034C28.0625 69.1109 28.0625 69.1185 28.0625 69.1261C28.0625 69.1337 28.0625 69.1412 28.0625 69.1488C28.0625 69.1564 28.0625 69.1639 28.0625 69.1715C28.0625 69.1791 28.0625 69.1866 28.0625 69.1942C28.0625 69.2017 28.0625 69.2093 28.0625 69.2169C28.0625 69.2244 28.0625 69.232 28.0625 69.2395C28.0625 69.2471 28.0625 69.2546 28.0625 69.2621C28.0625 69.2697 28.0625 69.2772 28.0625 69.2848C28.0625 69.2923 28.0625 69.2998 28.0625 69.3074C28.0625 69.3149 28.0625 69.3224 28.0625 69.33C28.0625 69.3375 28.0625 69.345 28.0625 69.3525C28.0625 69.3601 28.0625 69.3676 28.0625 69.3751C28.0625 69.3826 28.0625 69.3901 28.0625 69.3976C28.0625 69.4051 28.0625 69.4126 28.0625 69.4202C28.0625 69.4277 28.0625 69.4352 28.0625 69.4426C28.0625 69.4501 28.0625 69.4576 28.0625 69.4651C28.0625 69.4726 28.0625 69.4801 28.0625 69.4876C28.0625 69.4951 28.0625 69.5026 28.0625 69.51C28.0625 69.5175 28.0625 69.525 28.0625 69.5325C28.0625 69.5399 28.0625 69.5474 28.0625 69.5549C28.0625 69.5623 28.0625 69.5698 28.0625 69.5773C28.0625 69.5847 28.0625 69.5922 28.0625 69.5996C28.0625 69.6071 28.0625 69.6145 28.0625 69.622C28.0625 69.6294 28.0625 69.6369 28.0625 69.6443C28.0625 69.6517 28.0625 69.6592 28.0625 69.6666C28.0625 69.674 28.0625 69.6815 28.0625 69.6889C28.0625 69.6963 28.0625 69.7038 28.0625 69.7112C28.0625 69.7186 28.0625 69.726 28.0625 69.7334C28.0625 69.7408 28.0625 69.7482 28.0625 69.7556C28.0625 69.763 28.0625 69.7704 28.0625 69.7778C28.0625 69.7852 28.0625 69.7926 28.0625 69.8C28.0625 69.8074 28.0625 69.8148 28.0625 69.8222C28.0625 69.8295 28.0625 69.8369 28.0625 69.8443C28.0625 69.8517 28.0625 69.859 28.0625 69.8664C28.0625 69.8738 28.0625 69.8811 28.0625 69.8885C28.0625 69.8958 28.0625 69.9032 28.0625 69.9105C28.0625 69.9179 28.0625 69.9252 28.0625 69.9326C28.0625 69.9399 28.0625 69.9472 28.0625 69.9546C28.0625 69.9619 28.0625 69.9692 28.0625 69.9766C28.0625 69.9839 28.0625 69.9912 28.0625 69.9985C28.0625 70.0058 28.0625 70.0132 28.0625 70.0205C28.0625 70.0278 28.0625 70.0351 28.0625 70.0424C28.0625 70.0497 28.0625 70.057 28.0625 70.0642C28.0625 70.0715 28.0625 70.0788 28.0625 70.0861C28.0625 70.0934 28.0625 70.1007 28.0625 70.1079C28.0625 70.1152 28.0625 70.1225 28.0625 70.1297C28.0625 70.137 28.0625 70.1443 28.0625 70.1515C28.0625 70.1588 28.0625 70.166 28.0625 70.1733C28.0625 70.1805 28.0625 70.1878 28.0625 70.195C28.0625 70.2022 28.0625 70.2095 28.0625 70.2167C28.0625 70.2239 28.0625 70.2311 28.0625 70.2383C28.0625 70.2456 28.0625 70.2528 28.0625 70.26C28.0625 70.2672 28.0625 70.2744 28.0625 70.2816C28.0625 70.2888 28.0625 70.296 28.0625 70.3032C28.0625 70.3104 28.0625 70.3176 28.0625 70.3247C28.0625 70.3319 28.0625 70.3391 28.0625 70.3463C28.0625 70.3534 28.0625 70.3606 28.0625 70.3677C28.0625 70.3749 28.0625 70.3821 28.0625 70.3892C28.0625 70.3964 28.0625 70.4035 28.0625 70.4106C28.0625 70.4178 28.0625 70.4249 28.0625 70.432C28.0625 70.4392 28.0625 70.4463 28.0625 70.4534C28.0625 70.4605 28.0625 70.4676 28.0625 70.4747C28.0625 70.4818 28.0625 70.489 28.0625 70.4961C28.0625 70.5032 28.0625 70.5102 28.0625 70.5173C28.0625 70.5244 28.0625 70.5315 28.0625 70.5386C28.0625 70.5456 28.0625 70.5527 28.0625 70.5598C28.0625 70.5668 28.0625 70.5739 28.0625 70.581C28.0625 70.588 28.0625 70.5951 28.0625 70.6021C28.0625 70.6092 28.0625 70.6162 28.0625 70.6232C28.0625 70.6302 28.0625 70.6373 28.0625 70.6443C28.0625 70.6513 28.0625 70.6583 28.0625 70.6653C28.0625 70.6724 28.0625 70.6794 28.0625 70.6864C28.0625 70.6934 28.0625 70.7003 28.0625 70.7073C28.0625 70.7143 28.0625 70.7213 28.0625 70.7283C28.0625 70.7353 28.0625 70.7422 28.0625 70.7492C28.0625 70.7561 28.0625 70.7631 28.0625 70.7701C28.0625 70.777 28.0625 70.784 28.0625 70.7909C28.0625 70.7978 28.0625 70.8048 28.0625 70.8117C28.0625 70.8186 28.0625 70.8255 28.0625 70.8325C28.0625 70.8394 28.0625 70.8463 28.0625 70.8532C28.0625 70.8601 28.0625 70.867 28.0625 70.8739C28.0625 70.8808 28.0625 70.8877 28.0625 70.8945C28.0625 70.9014 28.0625 70.9083 28.0625 70.9152C28.0625 70.922 28.0625 70.9289 28.0625 70.9357C28.0625 70.9426 28.0625 70.9494 28.0625 70.9563C28.0625 70.9631 28.0625 70.97 28.0625 70.9768C28.0625 70.9836 28.0625 70.9904 28.0625 70.9973C28.0625 71.0041 28.0625 71.0109 28.0625 71.0177C28.0625 71.0245 28.0625 71.0313 28.0625 71.0381C28.0625 71.0449 28.0625 71.0517 28.0625 71.0584C28.0625 71.0652 28.0625 71.072 28.0625 71.0788C28.0625 71.0855 28.0625 71.0923 28.0625 71.099C28.0625 71.1058 28.0625 71.1125 28.0625 71.1193C28.0625 71.126 28.0625 71.1327 28.0625 71.1395C28.0625 71.1462 28.0625 71.1529 28.0625 71.1596C28.0625 71.1663 28.0625 71.173 28.0625 71.1797C28.0625 71.1864 28.0625 71.1931 28.0625 71.1998C28.0625 71.2065 28.0625 71.2131 28.0625 71.2198C28.0625 71.2265 28.0625 71.2331 28.0625 71.2398C28.0625 71.2465 28.0625 71.2531 28.0625 71.2598C28.0625 71.2664 28.0625 71.273 28.0625 71.2797C28.0625 71.2863 28.0625 71.2929 28.0625 71.2995C28.0625 71.3061 28.0625 71.3127 28.0625 71.3193C28.0625 71.3259 28.0625 71.3325 28.0625 71.3391C28.0625 71.3457 28.0625 71.3523 28.0625 71.3588C28.0625 71.3654 28.0625 71.372 28.0625 71.3785C28.0625 71.3851 28.0625 71.3916 28.0625 71.3982C28.0625 71.4047 28.0625 71.4113 28.0625 71.4178C28.0625 71.4243 28.0625 71.4308 28.0625 71.4373C28.0625 71.4439 28.0625 71.4504 28.0625 71.4569C28.0625 71.4634 28.0625 71.4698 28.0625 71.4763C28.0625 71.4828 28.0625 71.4893 28.0625 71.4958C28.0625 71.5022 28.0625 71.5087 28.0625 71.5151C28.0625 71.5216 28.0625 71.528 28.0625 71.5345C28.0625 71.5409 28.0625 71.5473 28.0625 71.5537C28.0625 71.5602 28.0625 71.5666 28.0625 71.573C28.0625 71.5794 28.0625 71.5858 28.0625 71.5922C28.0625 71.5986 28.0625 71.6049 28.0625 71.6113C28.0625 71.6177 28.0625 71.6241 28.0625 71.6304C28.0625 71.6368 28.0625 71.6431 28.0625 71.6495C28.0625 71.6558 28.0625 71.6622 28.0625 71.6685C28.0625 71.6748 28.0625 71.6811 28.0625 71.6874C28.0625 71.6937 28.0625 71.7001 28.0625 71.7063C28.0625 71.7126 28.0625 71.7189 28.0625 71.7252C28.0625 71.7315 28.0625 71.7378 28.0625 71.744C28.0625 71.7503 28.0625 71.7565 28.0625 71.7628C28.0625 71.769 28.0625 71.7753 28.0625 71.7815C28.0625 71.7877 28.0625 71.7939 28.0625 71.8002C28.0625 71.8064 28.0625 71.8126 28.0625 71.8188C28.0625 71.825 28.0625 71.8312 28.0625 71.8373C28.0625 71.8435 28.0625 71.8497 28.0625 71.8558C28.0625 71.862 28.0625 71.8682 28.0625 71.8743C28.0625 71.8804 28.0625 71.8866 28.0625 71.8927C28.0625 71.8988 28.0625 71.905 28.0625 71.9111C28.0625 71.9172 28.0625 71.9233 28.0625 71.9294C28.0625 71.9355 28.0625 71.9416 28.0625 71.9476C28.0625 71.9537 28.0625 71.9598 28.0625 71.9658C28.0625 71.9719 28.0625 71.978 28.0625 71.984C28.0625 71.99 28.0625 71.9961 28.0625 72.0021C28.0625 72.0081 28.0625 72.0141 28.0625 72.0201C28.0625 72.0261 28.0625 72.0321 28.0625 72.0381C28.0625 72.0441 28.0625 72.0501 28.0625 72.0561C28.0625 72.062 28.0625 72.068 28.0625 72.074C28.0625 72.0799 28.0625 72.0859 28.0625 72.0918C28.0625 72.0977 28.0625 72.1036 28.0625 72.1096C28.0625 72.1155 28.0625 72.1214 28.0625 72.1273C28.0625 72.1332 28.0625 72.1391 28.0625 72.145C28.0625 72.1508 28.0625 72.1567 28.0625 72.1626C28.0625 72.1684 28.0625 72.1743 28.0625 72.1801C28.0625 72.186 28.0625 72.1918 28.0625 72.1976C28.0625 72.2034 28.0625 72.2093 28.0625 72.2151C28.0625 72.2209 28.0625 72.2267 28.0625 72.2325C28.0625 72.2382 28.0625 72.244 28.0625 72.2498C28.0625 72.2556 28.0625 72.2613 28.0625 72.2671C28.0625 72.2728 28.0625 72.2785 28.0625 72.2843C28.0625 72.29 28.0625 72.2957 28.0625 72.3014C28.0625 72.3071 28.0625 72.3129 28.0625 72.3185C28.0625 72.3242 28.0625 72.3299 28.0625 72.3356C28.0625 72.3413 28.0625 72.3469 28.0625 72.3526C28.0625 72.3582 28.0625 72.3639 28.0625 72.3695C28.0625 72.3751 28.0625 72.3808 28.0625 72.3864C28.0625 72.392 28.0625 72.3976 28.0625 72.4032C28.0625 72.4088 28.0625 72.4144 28.0625 72.4199C28.0625 72.4255 28.0625 72.4311 28.0625 72.4366C28.0625 72.4422 28.0625 72.4477 28.0625 72.4532C28.0625 72.4588 28.0625 72.4643 28.0625 72.4698C28.0625 72.4753 28.0625 72.4808 28.0625 72.4863C28.0625 72.4918 28.0625 72.4973 28.0625 72.5028C28.0625 72.5082 28.0625 72.5137 28.0625 72.5192C28.0625 72.5246 28.0625 72.5301 28.0625 72.5355C28.0625 72.5409 28.0625 72.5463 28.0625 72.5518C28.0625 72.5572 28.0625 72.5626 28.0625 72.568C28.0625 72.5733 28.0625 72.5787 28.0625 72.5841C28.0625 72.5895 28.0625 72.5948 28.0625 72.6002C28.0625 72.6055 28.0625 72.6109 28.0625 72.6162C28.0625 72.6215 28.0625 72.6268 28.0625 72.6321C28.0625 72.6375 28.0625 72.6428 28.0625 72.648C28.0625 72.6533 28.0625 72.6586 28.0625 72.6639C28.0625 72.6691 28.0625 72.6744 28.0625 72.6796C28.0625 72.6849 28.0625 72.6901 28.0625 72.6953C28.0625 72.7005 28.0625 72.7058 28.0625 72.711C28.0625 72.7162 28.0625 72.7213 28.0625 72.7265C28.0625 72.7317 28.0625 72.7369 28.0625 72.742C28.0625 72.7472 28.0625 72.7523 28.0625 72.7575C28.0625 72.7626 28.0625 72.7677 28.0625 72.7728C28.0625 72.778 28.0625 72.7831 28.0625 72.7881C28.0625 72.7932 28.0625 72.7983 28.0625 72.8034C28.0625 72.8085 28.0625 72.8135 28.0625 72.8186C28.0625 72.8236 28.0625 72.8286 28.0625 72.8337C28.0625 72.8387 28.0625 72.8437 28.0625 72.8487C28.0625 72.8537 28.0625 72.8587 28.0625 72.8637C28.0625 72.8687 28.0625 72.8736 28.0625 72.8786C28.0625 72.8835 28.0625 72.8885 28.0625 72.8934C28.0625 72.8984 28.0625 72.9033 28.0625 72.9082C28.0625 72.9131 28.0625 72.918 28.0625 72.9229C28.0625 72.9278 28.0625 72.9327 28.0625 72.9375C28.0625 72.9424 28.0625 72.9473 28.0625 72.9521C28.0625 72.9569 28.0625 72.9618 28.0625 72.9666C28.0625 72.9714 28.0625 72.9762 28.0625 72.981C28.0625 72.9858 28.0625 72.9906 28.0625 72.9954C28.0625 73.0001 28.0625 73.0049 28.0625 73.0097C28.0625 73.0144 28.0625 73.0191 28.0625 73.0239C28.0625 73.0286 28.0625 73.0333 28.0625 73.038C28.0625 73.0427 28.0625 73.0474 28.0625 73.0521C28.0625 73.0568 28.0625 73.0614 28.0625 73.0661C28.0625 73.0708 28.0625 73.0754 28.0625 73.08C28.0625 73.0847 28.0625 73.0893 28.0625 73.0939C28.0625 73.0985 28.0625 73.1031 28.0625 73.1077C28.0625 73.1123 28.0625 73.1168 28.0625 73.1214C28.0625 73.126 28.0625 73.1305 28.0625 73.135C28.0625 73.1396 28.0625 73.1441 28.0625 73.1486C28.0625 73.1531 28.0625 73.1576 28.0625 73.1621C28.0625 73.1666 28.0625 73.1711 28.0625 73.1755C28.0625 73.18 28.0625 73.1844 28.0625 73.1889C28.0625 73.1933 28.0625 73.1977 28.0625 73.2022C28.0625 73.2066 28.0625 73.211 28.0625 73.2154C28.0625 73.2197 28.0625 73.2241 28.0625 73.2285C28.0625 73.2328 28.0625 73.2372 28.0625 73.2415C28.0625 73.2459 28.0625 73.2502 28.0625 73.2545C28.0625 73.2588 28.0625 73.2631 28.0625 73.2674C28.0625 73.2717 28.0625 73.276 28.0625 73.2802C28.0625 73.2845 28.0625 73.2888 28.0625 73.293C28.0625 73.2972 28.0625 73.3015 28.0625 73.3057C28.0625 73.3099 28.0625 73.3141 28.0625 73.3183C28.0625 73.3225 28.0625 73.3266 28.0625 73.3308C28.0625 73.335 28.0625 73.3391 28.0625 73.3432C28.0625 73.3474 28.0625 73.3515 28.0625 73.3556C28.0625 73.3597 28.0625 73.3638 28.0625 73.3679C28.0625 73.372 28.0625 73.3761 28.0625 73.3801C28.0625 73.3842 28.0625 73.3882 28.0625 73.3922C28.0625 73.3963 28.0625 73.4003 28.0625 73.4043C28.0625 73.4083 28.0625 73.4123 28.0625 73.4163C28.0625 73.4202 28.0625 73.4242 28.0625 73.4282C28.0625 73.4321 28.0625 73.4361 28.0625 73.44C28.0625 73.4439 28.0625 73.4478 28.0625 73.4517C28.0625 73.4556 28.0625 73.4595 28.0625 73.4634C28.0625 73.4673 28.0625 73.4711 28.0625 73.475C28.0625 73.4788 28.0625 73.4827 28.0625 73.4865C28.0625 73.4903 28.0625 73.4941 28.0625 73.4979C28.0625 73.5017 28.0625 73.5055 28.0625 73.5092C28.0625 73.513 28.0625 73.5167 28.0625 73.5205C28.0625 73.5242 28.0625 73.5279 28.0625 73.5317C28.0625 73.5354 28.0625 73.5391 28.0625 73.5427C28.0625 73.5464 28.0625 73.5501 28.0625 73.5538C28.0625 73.5574 28.0625 73.5611 28.0625 73.5647C28.0625 73.5683 28.0625 73.5719 28.0625 73.5755C28.0625 73.5791 28.0625 73.5827 28.0625 73.5863C28.0625 73.5899 28.0625 73.5934 28.0625 73.597C28.0625 73.6005 28.0625 73.6041 28.0625 73.6076C28.0625 73.6111 28.0625 73.6146 28.0625 73.6181C28.0625 73.6216 28.0625 73.6251 28.0625 73.6285C28.0625 73.632 28.0625 73.6354 28.0625 73.6389C28.0625 73.6423 28.0625 73.6457 28.0625 73.6491C28.0625 73.6525 28.0625 73.6559 28.0625 73.6593C28.0625 73.6627 28.0625 73.666 28.0625 73.6694C28.0625 73.6727 28.0625 73.6761 28.0625 73.6794C28.0625 73.6827 28.0625 73.686 28.0625 73.6893C28.0625 73.6926 28.0625 73.6959 28.0625 73.6991C28.0625 73.7024 28.0625 73.7057 28.0625 73.7089C28.0625 73.7121 28.0625 73.7153 28.0625 73.7186C28.0625 73.7218 28.0625 73.7249 28.0625 73.7281C28.0625 73.7313 28.0625 73.7345 28.0625 73.7376C28.0625 73.7408 28.0625 73.7439 28.0625 73.747C28.0625 73.7501 28.0625 73.7532 28.0625 73.7563C28.0625 73.7594 28.0625 73.7625 28.0625 73.7655C28.0625 73.7686 28.0625 73.7717 28.0625 73.7747C28.0625 73.7777 28.0625 73.7807 28.0625 73.7837C28.0625 73.7867 28.0625 73.7897 28.0625 73.7927C28.0625 73.7957 28.0625 73.7986 28.0625 73.8016C28.0625 73.8045 28.0625 73.8074 28.0625 73.8103C28.0625 73.8132 28.0625 73.8161 28.0625 73.819C28.0625 73.8219 28.0625 73.8248 28.0625 73.8276C28.0625 73.8305 28.0625 73.8333 28.0625 73.8361C28.0625 73.839 28.0625 73.8418 28.0625 73.8446C28.0625 73.8474 28.0625 73.8501 28.0625 73.8529C28.0625 73.8557 28.0625 73.8584 28.0625 73.8611C28.0625 73.8639 28.0625 73.8666 28.0625 73.8693C28.0625 73.872 28.0625 73.8747 28.0625 73.8773C28.0625 73.88 28.0625 73.8827 28.0625 73.8853C28.0625 73.8879 28.0625 73.8906 28.0625 73.8932C28.0625 73.8958 28.0625 73.8984 28.0625 73.9009C28.0625 73.9035 28.0625 73.9061 28.0625 73.9086C28.0625 73.9112 28.0625 73.9137 28.0625 73.9162C28.0625 73.9187 28.0625 73.9212 28.0625 73.9237C28.0625 73.9262 28.0625 73.9287 28.0625 73.9311C28.0625 73.9336 28.0625 73.936 28.0625 73.9384C28.0625 73.9409 28.0625 73.9433 28.0625 73.9457C28.0625 73.9481 28.0625 73.9504 28.0625 73.9528C28.0625 73.9551 28.0625 73.9575 28.0625 73.9598C28.0625 73.9622 28.0625 73.9645 28.0625 73.9668C28.0625 73.9691 28.0625 73.9713 28.0625 73.9736C28.0625 73.9759 28.0625 73.9781 28.0625 73.9803C28.0625 73.9826 28.0625 73.9848 28.0625 73.987C28.0625 73.9892 28.0625 73.9914 28.0625 73.9935C28.0625 73.9957 28.0625 73.9979 28.0625 74H30.0625ZM29.0625 64.3125C28.853 63.3347 28.8532 63.3346 28.8535 63.3346C28.8535 63.3346 28.8537 63.3345 28.8537 63.3345C28.8538 63.3345 28.8538 63.3345 28.8535 63.3346C28.853 63.3347 28.8519 63.3349 28.8501 63.3353C28.8466 63.336 28.8405 63.3373 28.8319 63.339C28.8147 63.3425 28.7876 63.348 28.751 63.3549C28.6779 63.3689 28.5675 63.3892 28.4244 63.4129C28.1379 63.4605 27.7219 63.5216 27.214 63.5742C26.1939 63.6797 24.824 63.7482 23.3971 63.6101C20.4866 63.3285 17.7079 62.2427 16.7299 59.3088L14.8326 59.9412C16.1983 64.0386 20.0603 65.2965 23.2045 65.6008C24.805 65.7557 26.3159 65.6777 27.4198 65.5635C27.9739 65.5062 28.4307 65.4392 28.7515 65.386C28.9121 65.3594 29.0389 65.3362 29.1272 65.3193C29.1713 65.3108 29.2059 65.3039 29.2302 65.299C29.2424 65.2965 29.252 65.2945 29.259 65.2931C29.2625 65.2923 29.2653 65.2917 29.2675 65.2913C29.2686 65.291 29.2695 65.2908 29.2703 65.2907C29.2706 65.2906 29.2711 65.2905 29.2713 65.2905C29.2717 65.2904 29.272 65.2903 29.0625 64.3125ZM15.7812 59.625C16.7162 59.2703 16.7162 59.2701 16.7161 59.2699C16.7161 59.2698 16.716 59.2696 16.7159 59.2694C16.7157 59.269 16.7156 59.2686 16.7154 59.268C16.715 59.267 16.7145 59.2657 16.7139 59.2641C16.7126 59.2609 16.711 59.2566 16.7089 59.2513C16.7048 59.2406 16.699 59.2257 16.6916 59.2068C16.6767 59.1691 16.6551 59.1153 16.6272 59.0475C16.5715 58.912 16.49 58.72 16.3845 58.4872C16.1743 58.0232 15.8657 57.3902 15.4727 56.718C14.7228 55.4352 13.5314 53.7699 11.9633 53.0838L11.1617 54.9162C12.0936 55.3239 13.0116 56.471 13.7461 57.7274C14.0952 58.3246 14.3726 58.8929 14.5627 59.3126C14.6575 59.5217 14.7298 59.6922 14.7778 59.8088C14.8018 59.867 14.8196 59.9117 14.8311 59.9408C14.8369 59.9554 14.841 59.9661 14.8436 59.9726C14.8448 59.9759 14.8457 59.9782 14.8461 59.9793C14.8464 59.9799 14.8465 59.9803 14.8465 59.9803C14.8465 59.9803 14.8465 59.9803 14.8465 59.9802C14.8464 59.9801 14.8464 59.98 14.8464 59.98C14.8463 59.9798 14.8463 59.9797 15.7812 59.625ZM11.5625 54C12.1336 53.1791 12.1337 53.1792 12.1339 53.1793C12.134 53.1794 12.1341 53.1795 12.1342 53.1795C12.1343 53.1796 12.1344 53.1797 12.1345 53.1797C12.1346 53.1798 12.1345 53.1797 12.1342 53.1795C12.1335 53.1791 12.1321 53.1781 12.1299 53.1765C12.1255 53.1734 12.118 53.168 12.1077 53.1607C12.0872 53.1459 12.0559 53.123 12.0163 53.0932C11.9366 53.0333 11.8258 52.9473 11.7037 52.8445C11.4434 52.6252 11.1952 52.3824 11.0584 52.1835C10.9886 52.0819 10.9953 52.059 11.0042 52.1067C11.0199 52.1902 11.0132 52.3677 10.8884 52.5212C10.7956 52.6355 10.7316 52.616 10.8891 52.5747C11.0358 52.5362 11.296 52.5 11.7188 52.5V50.5C11.204 50.5 10.7562 50.5419 10.3817 50.6401C10.0179 50.7356 9.61944 50.9114 9.33619 51.26C9.02099 51.648 8.9679 52.0988 9.03849 52.4753C9.10238 52.816 9.2653 53.1056 9.41033 53.3165C9.70328 53.7426 10.1191 54.1248 10.4154 54.3743C10.5717 54.5059 10.7123 54.6151 10.8145 54.6919C10.8659 54.7305 10.9081 54.7613 10.9384 54.7832C10.9535 54.7941 10.9658 54.8028 10.9747 54.8092C10.9792 54.8123 10.9828 54.8149 10.9856 54.8169C10.987 54.8178 10.9882 54.8187 10.9892 54.8193C10.9897 54.8197 10.9901 54.82 10.9905 54.8202C10.9907 54.8204 10.9909 54.8205 10.991 54.8206C10.9912 54.8208 10.9914 54.8209 11.5625 54ZM11.7188 51.5C11.639 52.4968 11.6386 52.4968 11.6382 52.4967C11.638 52.4967 11.6376 52.4967 11.6374 52.4967C11.6369 52.4967 11.6365 52.4966 11.6362 52.4966C11.6354 52.4965 11.635 52.4965 11.6347 52.4965C11.6342 52.4964 11.6345 52.4964 11.6358 52.4966C11.6384 52.4968 11.6444 52.4974 11.6539 52.4984C11.6728 52.5005 11.7051 52.5044 11.7494 52.5107C11.8383 52.5234 11.975 52.546 12.1489 52.5842C12.4976 52.6607 12.9901 52.7986 13.5445 53.0412C14.6508 53.5252 15.9865 54.4168 16.9487 56.0664L18.6763 55.0586C17.451 52.9582 15.7398 51.8186 14.3461 51.2088C13.6506 50.9045 13.0297 50.7299 12.5777 50.6307C12.3512 50.581 12.1656 50.5498 12.0323 50.5308C11.9656 50.5213 11.9118 50.5147 11.8724 50.5104C11.8527 50.5082 11.8366 50.5066 11.8242 50.5055C11.818 50.5049 11.8128 50.5044 11.8085 50.504C11.8063 50.5038 11.8044 50.5037 11.8028 50.5035C11.8019 50.5035 11.8012 50.5034 11.8004 50.5033C11.8001 50.5033 11.7996 50.5033 11.7994 50.5033C11.799 50.5032 11.7985 50.5032 11.7188 51.5ZM16.9415 56.0538C18.8211 59.3858 21.3776 60.6689 23.8344 60.8943C26.2174 61.1129 28.3991 60.3298 29.6416 59.7499L28.7959 57.9376C27.6946 58.4515 25.892 59.0746 24.0171 58.9026C22.2161 58.7374 20.2414 57.8329 18.6835 55.0712L16.9415 56.0538ZM30.211 58.9678C30.4993 56.6617 31.3461 55.1861 32.3773 54.2838L31.0602 52.7787C29.5914 54.0639 28.5632 56.0258 28.2265 58.7197L30.211 58.9678ZM31.8253 52.5369C27.4007 52.0629 23.2548 51.524 20.1796 49.3894C17.2123 47.3298 15.0625 43.6333 15.0625 36.3438H13.0625C13.0625 44.0542 15.3658 48.4827 19.0392 51.0324C22.6046 53.5072 27.2868 54.0621 31.6122 54.5256L31.8253 52.5369ZM15.0625 36.3438C15.0625 34.2567 15.3597 32.8012 15.9138 31.5546C16.4743 30.2935 17.3272 29.1761 18.5599 27.7894L17.0651 26.4606C15.7978 27.8864 14.7757 29.1909 14.0862 30.7423C13.3903 32.3082 13.0625 34.0558 13.0625 36.3438H15.0625ZM18.7316 26.7311C18.3429 25.8241 17.1416 22.0418 19.2097 16.8714L17.3528 16.1286C15.0459 21.8957 16.3446 26.2384 16.8934 27.5189L18.7316 26.7311ZM18.5686 17.4578C19.0513 17.313 19.8717 17.3797 20.9935 17.7205C22.0716 18.048 23.2632 18.576 24.3905 19.1492C25.5126 19.7197 26.5435 20.3209 27.2957 20.7809C27.6711 21.0104 27.9754 21.2037 28.1849 21.339C28.2896 21.4067 28.3705 21.4597 28.4247 21.4955C28.4518 21.5134 28.4722 21.527 28.4855 21.5359C28.4922 21.5403 28.4971 21.5436 28.5001 21.5457C28.5017 21.5467 28.5028 21.5474 28.5034 21.5478C28.5037 21.5481 28.5039 21.5482 28.504 21.5483C28.504 21.5483 28.504 21.5483 28.504 21.5483C28.504 21.5482 28.5039 21.5482 29.0625 20.7188C29.6211 19.8893 29.621 19.8892 29.6208 19.8891C29.6207 19.889 29.6205 19.8889 29.6203 19.8888C29.6199 19.8885 29.6194 19.8882 29.6188 19.8878C29.6176 19.8869 29.6159 19.8858 29.6137 19.8844C29.6094 19.8815 29.6033 19.8774 29.5954 19.8721C29.5796 19.8615 29.5566 19.8463 29.5268 19.8266C29.4673 19.7873 29.3807 19.7305 29.27 19.659C29.0486 19.516 28.7303 19.3138 28.3391 19.0746C27.558 18.597 26.4796 17.9678 25.297 17.3664C24.1196 16.7678 22.8112 16.1824 21.5749 15.8069C20.3822 15.4445 19.0737 15.2182 17.9939 15.5422L18.5686 17.4578ZM29.3498 21.6766C32.3512 20.7762 35.5282 20.4688 38.75 20.4688V18.4688C35.4093 18.4688 32.0238 18.7863 28.7752 19.7609L29.3498 21.6766ZM38.75 20.4688C42.1303 20.4688 45.3065 20.7766 48.3064 21.6766L48.8811 19.7609C45.631 18.7859 42.2447 18.4688 38.75 18.4688V20.4688ZM48.5938 20.7188C49.1718 21.5348 49.1717 21.5348 49.1716 21.5349C49.1716 21.5349 49.1716 21.5349 49.1716 21.5349C49.1717 21.5348 49.1719 21.5347 49.1722 21.5345C49.1727 21.5341 49.1738 21.5334 49.1753 21.5323C49.1782 21.5302 49.1829 21.5269 49.1894 21.5224C49.2023 21.5133 49.2222 21.4995 49.2486 21.4811C49.3014 21.4445 49.3805 21.3901 49.4829 21.3208C49.6879 21.1821 49.986 20.9839 50.3545 20.749C51.093 20.2781 52.107 19.6642 53.2162 19.0859C54.3309 18.5048 55.512 17.9753 56.5896 17.6567C57.7046 17.3271 58.5395 17.2756 59.0588 17.4487L59.6912 15.5513C58.5698 15.1775 57.2368 15.3799 56.0227 15.7388C54.7712 16.1087 53.4621 16.7023 52.2916 17.3125C51.1156 17.9256 50.0495 18.5715 49.2793 19.0625C48.8934 19.3086 48.58 19.5169 48.3619 19.6644C48.2529 19.7382 48.1676 19.7969 48.109 19.8376C48.0797 19.8579 48.057 19.8737 48.0413 19.8847C48.0335 19.8902 48.0274 19.8945 48.0231 19.8975C48.021 19.899 48.0193 19.9002 48.0181 19.9011C48.0175 19.9015 48.017 19.9019 48.0166 19.9021C48.0164 19.9023 48.0162 19.9024 48.0161 19.9025C48.0159 19.9026 48.0157 19.9027 48.5938 20.7188ZM58.4465 16.8714C60.5018 22.0097 59.1857 25.7882 58.8822 26.8503L60.8053 27.3997C61.1268 26.2743 62.6232 21.9278 60.3035 16.1286L58.4465 16.8714ZM59.0963 27.7894C60.348 29.1974 61.2806 30.3206 61.9181 31.5956C62.5418 32.8432 62.9062 34.2876 62.9062 36.3438H64.9062C64.9062 34.0249 64.4894 32.2662 63.7069 30.7012C62.9382 29.1637 61.8395 27.8651 60.5912 26.4606L59.0963 27.7894ZM62.9062 36.3438C62.9062 43.6203 60.6871 47.3181 57.6419 49.3833C54.485 51.5241 50.2551 52.0629 45.831 52.5369L46.044 54.5256C50.3699 54.0621 55.1243 53.5071 58.7644 51.0386C62.516 48.4944 64.9062 44.0672 64.9062 36.3438H62.9062ZM45.2731 54.2787C46.4254 55.3029 47.5938 57.3515 47.5938 60.875H49.5938C49.5938 56.8985 48.2621 54.2596 46.6019 52.7838L45.2731 54.2787ZM47.5938 60.875C47.5938 63.4447 47.5548 66.3678 47.5158 68.8082C47.4769 71.2368 47.4375 73.2081 47.4375 73.8438H49.4375C49.4375 73.2294 49.4762 71.2945 49.5155 68.8402C49.5546 66.3978 49.5938 63.4615 49.5938 60.875H47.5938ZM47.4375 73.8438C47.4375 74.6051 47.7074 75.497 48.4259 76.1218C49.1766 76.7746 50.2338 76.9795 51.4749 76.6931L51.0251 74.7444C50.2349 74.9267 49.8859 74.741 49.7382 74.6126C49.5583 74.4561 49.4375 74.1762 49.4375 73.8438H47.4375ZM51.5634 76.6684C67.6151 71.3713 78.5 56.1322 78.5 38.375H76.5C76.5 55.3053 66.1349 69.7537 50.9366 74.7691L51.5634 76.6684ZM78.5 38.375C78.5 16.2211 60.3561 -0.75 38.125 -0.75V1.25C59.3314 1.25 76.5 17.4039 76.5 38.375H78.5ZM14.709 53.2618C14.0005 53.6161 13.9474 54.3245 13.9866 54.6768C14.0256 55.0284 14.166 55.3494 14.2618 55.541L16.0507 54.6465C16.0256 54.5964 16.0045 54.5477 15.9898 54.5059C15.974 54.4609 15.9731 54.4451 15.9744 54.456C15.9749 54.4611 15.986 54.5513 15.9374 54.6794C15.9114 54.7481 15.8694 54.8236 15.8062 54.8944C15.7426 54.9657 15.6712 55.0168 15.6035 55.0507L14.709 53.2618ZM14.709 55.9882C14.8424 56.0549 15.0999 56.1886 15.3825 56.2592C15.7015 56.339 16.1154 56.3572 16.541 56.1444L15.6465 54.3556C15.6925 54.3326 15.7459 54.3186 15.797 54.3154C15.8438 54.3125 15.8705 54.3197 15.8675 54.3189C15.8627 54.3177 15.8403 54.3113 15.7914 54.2899C15.7408 54.2678 15.6858 54.2405 15.6035 54.1993L14.709 55.9882ZM16.8009 55.9571C17.1878 55.5702 17.2203 55.0441 17.1853 54.7294C17.1435 54.3529 16.9783 53.9391 16.6446 53.6054L15.2304 55.0196C15.2092 54.9984 15.2003 54.9752 15.1975 54.9503C15.1961 54.9373 15.1937 54.9024 15.2071 54.8469C15.2181 54.8014 15.2566 54.673 15.3866 54.5429L16.8009 55.9571ZM16.3847 53.4181C16.2551 53.3533 16.008 53.2257 15.763 53.1557C15.5592 53.0974 14.9399 52.9584 14.4491 53.4491L15.8634 54.8634C15.7075 55.0192 15.5216 55.0773 15.3869 55.089C15.3265 55.0943 15.2807 55.0902 15.255 55.0867C15.2291 55.0832 15.2144 55.0789 15.2136 55.0787C15.2123 55.0784 15.2185 55.0801 15.2336 55.0859C15.2485 55.0917 15.2682 55.0999 15.294 55.1116C15.3485 55.1362 15.4086 55.1661 15.4903 55.2069L16.3847 53.4181ZM12.5431 52.459C12.3691 52.807 12.2691 53.3062 12.5605 53.7918C12.7807 54.159 13.1394 54.344 13.3028 54.4257L14.1972 52.6368C14.1435 52.61 14.1322 52.6004 14.1418 52.6074C14.151 52.6143 14.2151 52.6623 14.2755 52.7628C14.3445 52.8779 14.3812 53.0164 14.3757 53.1537C14.3708 53.2751 14.3351 53.3472 14.3319 53.3535L12.5431 52.459ZM13.3028 54.4257C13.5571 54.5528 13.9263 54.6781 14.3406 54.6189C14.8199 54.5504 15.209 54.2556 15.4257 53.8222L13.6368 52.9278C13.6584 52.8846 13.7057 52.8134 13.7928 52.749C13.8812 52.6837 13.9765 52.6506 14.0578 52.639C14.1987 52.6188 14.2554 52.6659 14.1972 52.6368L13.3028 54.4257ZM15.5312 53.375C15.5312 52.9381 15.3083 52.6206 15.1212 52.4335C14.9361 52.2484 14.713 52.1135 14.5097 52.0118L13.6153 53.8007C13.7245 53.8553 13.7358 53.8766 13.707 53.8477C13.6761 53.8169 13.5312 53.6556 13.5312 53.375H15.5312ZM14.5097 52.0118C14.3257 51.9198 14.0333 51.7891 13.6914 51.7891C13.2644 51.7891 12.9452 51.9843 12.7304 52.1991L14.1446 53.6134C14.126 53.632 14.0727 53.6809 13.9829 53.7232C13.8861 53.7687 13.7841 53.7891 13.6914 53.7891C13.608 53.7891 13.5559 53.7726 13.5502 53.7708C13.5451 53.7691 13.5634 53.7747 13.6153 53.8007L14.5097 52.0118ZM17.7304 57.8241C17.3314 58.2231 17.298 58.775 17.3832 59.1583C17.4818 59.6021 17.7607 60.0111 18.1953 60.3008L19.3047 58.6367C19.2705 58.6139 19.3151 58.6322 19.3356 58.7245C19.3444 58.7642 19.3498 58.8245 19.3338 58.9023C19.3194 58.9716 19.2763 59.1067 19.1446 59.2384L17.7304 57.8241ZM18.0429 60.1759C18.2979 60.4308 18.6551 60.6674 19.0604 60.7574C19.2682 60.8036 19.5491 60.8238 19.845 60.7217C20.1673 60.6106 20.4278 60.3805 20.5819 60.0722L18.7931 59.1778C18.8691 59.0258 19.0124 58.8933 19.1931 58.831C19.3474 58.7778 19.4623 58.798 19.4943 58.8051C19.548 58.817 19.5146 58.8192 19.4571 58.7616L18.0429 60.1759ZM20.3946 60.3321C20.7815 59.9452 20.814 59.4191 20.779 59.1044C20.7372 58.7279 20.5721 58.3141 20.2384 57.9804L18.8241 59.3946C18.8029 59.3734 18.794 59.3502 18.7913 59.3253C18.7898 59.3123 18.7875 59.2774 18.8009 59.2219C18.8118 59.1764 18.8503 59.048 18.9804 58.9179L20.3946 60.3321ZM20.2384 57.9804C19.9772 57.7193 19.6125 57.4808 19.1805 57.3944C18.7136 57.301 18.1609 57.3936 17.7304 57.8241L19.1446 59.2384C19.0998 59.2831 19.0323 59.3255 18.9508 59.347C18.8743 59.3671 18.8158 59.3611 18.7883 59.3556C18.7623 59.3504 18.7577 59.3448 18.7714 59.3527C18.7843 59.3602 18.8037 59.3741 18.8241 59.3946L20.2384 57.9804ZM16.2715 55.2931C15.71 55.5738 15.4844 56.1236 15.4844 56.5977C15.4844 57.0605 15.6839 57.5044 16.0116 57.8321L17.4259 56.4179C17.4411 56.4331 17.4844 56.4863 17.4844 56.5977C17.4844 56.6561 17.4714 56.7432 17.4185 56.839C17.3628 56.9402 17.2744 57.0277 17.166 57.0819L16.2715 55.2931ZM16.0116 57.8321C16.2137 58.0342 16.4889 58.2631 16.8364 58.3934C17.2234 58.5385 17.6716 58.5479 18.1035 58.3319L17.209 56.5431C17.2543 56.5204 17.3176 56.5013 17.3906 56.499C17.4612 56.4968 17.5131 56.5111 17.5386 56.5207C17.5615 56.5293 17.5611 56.5331 17.5368 56.5156C17.5128 56.4984 17.4759 56.4679 17.4259 56.4179L16.0116 57.8321ZM18.3634 58.1446C18.5695 57.9384 18.663 57.6986 18.7081 57.535C18.7566 57.3593 18.7734 57.184 18.7734 57.0273C18.7734 56.7232 18.7093 56.3701 18.5507 56.0528L16.7618 56.9472C16.7576 56.9388 16.7619 56.9452 16.7667 56.9677C16.7714 56.9892 16.7734 57.0112 16.7734 57.0273C16.7734 57.0465 16.7708 57.0371 16.7801 57.0031C16.7852 56.9849 16.7962 56.9505 16.8189 56.9065C16.8413 56.8631 16.8814 56.7981 16.9491 56.7304L18.3634 58.1446ZM18.3634 55.7929C18.1613 55.5908 17.8861 55.3619 17.5386 55.2316C17.1516 55.0865 16.7034 55.0771 16.2715 55.2931L17.166 57.0819C17.1207 57.1046 17.0574 57.1237 16.9844 57.126C16.9138 57.1282 16.8619 57.1139 16.8364 57.1043C16.8135 57.0957 16.8139 57.0919 16.8382 57.1094C16.8622 57.1266 16.8991 57.1571 16.9491 57.2071L18.3634 55.7929Z" fill="#F02937"/>
</svg>
