<svg width="76" height="52" viewBox="0 0 76 52" fill="none" xmlns="http://www.w3.org/2000/svg">
<path d="M24 21.5H33L14.7678 45.8096L17.4709 32.2942L17.8297 30.5H16H2.1645L13.0395 1.5H29.7845L22.6073 19.4429L21.7845 21.5H24Z" stroke="#15995F" stroke-width="3"/>
<path d="M24 21.5H33L14.7678 45.8096L17.4709 32.2942L17.8297 30.5H16H2.1645L13.0395 1.5H29.7845L22.6073 19.4429L21.7845 21.5H24Z" stroke="#29F031" stroke-width="3"/>
<path d="M24 21.5H33L14.7678 45.8096L17.4709 32.2942L17.8297 30.5H16H2.1645L13.0395 1.5H29.7845L22.6073 19.4429L21.7845 21.5H24Z" stroke="#2979F0" stroke-width="3"/>
<path d="M24 21.5H33L14.7678 45.8096L17.4709 32.2942L17.8297 30.5H16H2.1645L13.0395 1.5H29.7845L22.6073 19.4429L21.7845 21.5H24Z" stroke="#8129F0" stroke-width="3"/>
<path d="M64 21.5H73L54.7678 45.8096L57.4709 32.2942L57.8297 30.5H56H42.1645L53.0395 1.5H69.7845L62.6073 19.4429L61.7845 21.5H64Z" stroke="#15995F" stroke-width="3"/>
<path d="M64 21.5H73L54.7678 45.8096L57.4709 32.2942L57.8297 30.5H56H42.1645L53.0395 1.5H69.7845L62.6073 19.4429L61.7845 21.5H64Z" stroke="#29F031" stroke-width="3"/>
<path d="M64 21.5H73L54.7678 45.8096L57.4709 32.2942L57.8297 30.5H56H42.1645L53.0395 1.5H69.7845L62.6073 19.4429L61.7845 21.5H64Z" stroke="#2979F0" stroke-width="3"/>
<path d="M64 21.5H73L54.7678 45.8096L57.4709 32.2942L57.8297 30.5H56H42.1645L53.0395 1.5H69.7845L62.6073 19.4429L61.7845 21.5H64Z" stroke="#8129F0" stroke-width="3"/>
</svg>
