<svg width="92" height="96" viewBox="0 0 92 96" fill="none" xmlns="http://www.w3.org/2000/svg">
<path d="M58.5 3L50.234 23.9278L33.7021 8.97938L34.883 31.701L13.6277 24.5258L25.4362 44.2577L3 48.4433L20.7128 61.5979L3 74.1546L25.4362 77.1443L13.6277 97.4742L34.883 90.299L33.7021 113.021L49.6436 97.4742L58.5 119L66.766 97.4742L83.2979 113.021L80.9362 90.299L103.372 97.4742L91.5638 77.7423L114 74.1546L95.1064 61L114 49.0412L91.5638 44.2577L103.963 24.5258L81.5266 31.701L83.2979 8.97938L66.766 24.5258L58.5 3Z" stroke="#15995F" stroke-width="2"/>
<path d="M58.5 3L50.234 23.9278L33.7021 8.97938L34.883 31.701L13.6277 24.5258L25.4362 44.2577L3 48.4433L20.7128 61.5979L3 74.1546L25.4362 77.1443L13.6277 97.4742L34.883 90.299L33.7021 113.021L49.6436 97.4742L58.5 119L66.766 97.4742L83.2979 113.021L80.9362 90.299L103.372 97.4742L91.5638 77.7423L114 74.1546L95.1064 61L114 49.0412L91.5638 44.2577L103.963 24.5258L81.5266 31.701L83.2979 8.97938L66.766 24.5258L58.5 3Z" stroke="#29F031" stroke-width="2"/>
<path d="M58.5 3L50.234 23.9278L33.7021 8.97938L34.883 31.701L13.6277 24.5258L25.4362 44.2577L3 48.4433L20.7128 61.5979L3 74.1546L25.4362 77.1443L13.6277 97.4742L34.883 90.299L33.7021 113.021L49.6436 97.4742L58.5 119L66.766 97.4742L83.2979 113.021L80.9362 90.299L103.372 97.4742L91.5638 77.7423L114 74.1546L95.1064 61L114 49.0412L91.5638 44.2577L103.963 24.5258L81.5266 31.701L83.2979 8.97938L66.766 24.5258L58.5 3Z" stroke="#2979F0" stroke-width="2"/>
<path d="M58.5 3L50.234 23.9278L33.7021 8.97938L34.883 31.701L13.6277 24.5258L25.4362 44.2577L3 48.4433L20.7128 61.5979L3 74.1546L25.4362 77.1443L13.6277 97.4742L34.883 90.299L33.7021 113.021L49.6436 97.4742L58.5 119L66.766 97.4742L83.2979 113.021L80.9362 90.299L103.372 97.4742L91.5638 77.7423L114 74.1546L95.1064 61L114 49.0412L91.5638 44.2577L103.963 24.5258L81.5266 31.701L83.2979 8.97938L66.766 24.5258L58.5 3Z" stroke="#8129F0" stroke-width="2"/>
<path d="M58.5 30L53.9574 41.1856L44.8723 33.1959L45.5213 45.3402L33.8404 41.5052L40.3298 52.0515L28 54.2887L37.734 61.3196L28 68.0309L40.3298 69.6289L33.8404 80.4948L45.5213 76.6598L44.8723 88.8041L53.633 80.4948L58.5 92L63.0426 80.4948L72.1277 88.8041L70.8298 76.6598L83.1596 80.4948L76.6702 69.9485L89 68.0309L78.617 61L89 54.6082L76.6702 52.0515L83.484 41.5052L71.1543 45.3402L72.1277 33.1959L63.0426 41.5052L58.5 30Z" fill="#F02937"/>
</svg>
