<svg width="59" height="36" viewBox="0 0 59 36" fill="none" xmlns="http://www.w3.org/2000/svg">
<path d="M18.6667 15.3462H24.7746L12.1431 30.3375L13.908 22.4827L14.3189 20.6538H12.4444H2.25963L10.3291 1.5H22.5703L17.2985 13.2313L16.3481 15.3462H18.6667Z" stroke="#15995F" stroke-width="3"/>
<path d="M18.6667 15.3462H24.7746L12.1431 30.3375L13.908 22.4827L14.3189 20.6538H12.4444H2.25963L10.3291 1.5H22.5703L17.2985 13.2313L16.3481 15.3462H18.6667Z" stroke="#29F031" stroke-width="3"/>
<path d="M18.6667 15.3462H24.7746L12.1431 30.3375L13.908 22.4827L14.3189 20.6538H12.4444H2.25963L10.3291 1.5H22.5703L17.2985 13.2313L16.3481 15.3462H18.6667Z" stroke="#2979F0" stroke-width="3"/>
<path d="M18.6667 15.3462H24.7746L12.1431 30.3375L13.908 22.4827L14.3189 20.6538H12.4444H2.25963L10.3291 1.5H22.5703L17.2985 13.2313L16.3481 15.3462H18.6667Z" stroke="#8129F0" stroke-width="3"/>
<path d="M49.6667 15.3462H55.7746L43.1431 30.3375L44.908 22.4827L45.3189 20.6538H43.4444H33.2596L41.3291 1.5H53.5703L48.2985 13.2313L47.3481 15.3462H49.6667Z" stroke="#15995F" stroke-width="3"/>
<path d="M49.6667 15.3462H55.7746L43.1431 30.3375L44.908 22.4827L45.3189 20.6538H43.4444H33.2596L41.3291 1.5H53.5703L48.2985 13.2313L47.3481 15.3462H49.6667Z" stroke="#29F031" stroke-width="3"/>
<path d="M49.6667 15.3462H55.7746L43.1431 30.3375L44.908 22.4827L45.3189 20.6538H43.4444H33.2596L41.3291 1.5H53.5703L48.2985 13.2313L47.3481 15.3462H49.6667Z" stroke="#2979F0" stroke-width="3"/>
<path d="M49.6667 15.3462H55.7746L43.1431 30.3375L44.908 22.4827L45.3189 20.6538H43.4444H33.2596L41.3291 1.5H53.5703L48.2985 13.2313L47.3481 15.3462H49.6667Z" stroke="#8129F0" stroke-width="3"/>
</svg>
