<svg width="232" height="127" viewBox="0 0 232 127" fill="none" xmlns="http://www.w3.org/2000/svg">
<ellipse cx="115.569" cy="63.2434" rx="110" ry="36" transform="rotate(15 115.569 63.2434)" fill="#15995F"/>
<ellipse cx="115.569" cy="63.2434" rx="110" ry="36" transform="rotate(15 115.569 63.2434)" fill="#29F031"/>
<ellipse cx="115.569" cy="63.2434" rx="110" ry="36" transform="rotate(15 115.569 63.2434)" fill="#2979F0"/>
<ellipse cx="115.569" cy="63.2434" rx="110" ry="36" transform="rotate(15 115.569 63.2434)" fill="#8129F0"/>
<path d="M68.162 60.8935C68.3062 60.9321 68.4891 60.8265 68.7107 60.5767C68.9322 60.3268 69.1313 59.8722 69.308 59.2128L73.2835 44.3762C73.4602 43.7168 73.5123 43.2338 73.4398 42.9273C73.3729 42.6002 73.27 42.407 73.1313 42.3477L79.1896 43.971C79.0454 43.9324 78.9655 44.0656 78.95 44.3706C78.9551 44.6812 79.1626 45.2668 79.5725 46.1276C79.7027 46.3833 79.9501 46.9024 80.3147 47.6848C80.7055 48.452 81.1455 49.365 81.6348 50.4238C82.1503 51.4674 82.6753 52.5578 83.2099 53.6949C83.765 54.8375 84.2853 55.9045 84.7706 56.8959L84.8324 56.9124L87.1928 48.1032C87.3695 47.4438 87.4216 46.9608 87.3491 46.6543C87.2822 46.3271 87.1794 46.1339 87.0406 46.0747L93.0989 47.698C92.9547 47.6594 92.7718 47.7649 92.5502 48.0148C92.3287 48.2646 92.1268 48.7296 91.9446 49.4096L87.9774 64.2153C87.8007 64.8747 87.7459 65.368 87.8128 65.6951C87.8798 66.0222 87.9854 66.2051 88.1296 66.2438L82.8131 64.8192C82.9368 64.8524 82.9857 64.7109 82.96 64.3948C82.9549 64.0842 82.768 63.5041 82.3994 62.6544C82.1554 62.081 81.819 61.3173 81.39 60.3631C80.9665 59.3882 80.4903 58.322 79.9612 57.1643C79.4322 56.0066 78.8956 54.8358 78.3514 53.6519C77.8279 52.4736 77.3338 51.3915 76.8691 50.4057L76.7764 50.3808L74.0681 60.4883C73.8914 61.1477 73.8365 61.641 73.9035 61.9681C73.9704 62.2952 74.076 62.4781 74.2203 62.5168L68.162 60.8935ZM91.2235 67.0728C91.3677 67.1114 91.5506 67.0058 91.7721 66.756C91.9937 66.5062 92.1928 66.0515 92.3695 65.3921L96.345 50.5555C96.5216 49.8961 96.5738 49.4131 96.5013 49.1066C96.4343 48.7795 96.3315 48.5863 96.1928 48.527L114.244 53.3638L113.996 54.2911L113.653 58.0423C113.199 57.6776 112.355 57.1976 111.123 56.6025C109.897 55.9868 108.367 55.4332 106.533 54.9418L101.958 53.716C101.34 53.5504 100.955 53.5025 100.804 53.5724C100.679 53.6272 100.558 53.871 100.442 54.3037L99.8296 56.591C99.7081 57.0444 99.6878 57.3261 99.7688 57.4361C99.8703 57.5517 100.22 57.6895 100.817 57.8496L105.268 59.0423C106.464 59.3625 107.438 59.5574 108.193 59.6271C108.973 59.6816 109.496 59.6671 109.761 59.5836C109.574 59.953 109.36 60.3815 109.119 60.8691C108.878 61.3566 108.663 61.8291 108.474 62.2865C108.285 62.7439 108.149 63.1271 108.067 63.4362L99.9065 61.2497C99.3089 61.0896 98.9372 61.0341 98.7915 61.0834C98.6719 61.1177 98.5486 61.3717 98.4216 61.8457L97.8087 64.133C97.6817 64.6069 97.6587 64.8989 97.7396 65.009C97.8206 65.119 98.1702 65.2568 98.7884 65.4225L107.134 67.6587C108.329 67.9789 109.323 68.1017 110.116 68.0271C110.935 67.9374 111.494 67.789 111.793 67.5818L110.181 71.1253L109.924 72.0835L91.2235 67.0728ZM119.083 74.5376C119.238 74.5351 119.372 74.4054 119.485 74.1485C119.604 73.8711 119.632 73.3929 119.571 72.714C119.55 72.4652 119.488 71.9519 119.388 71.174C119.308 70.4016 119.194 69.4656 119.047 68.3661C118.926 67.2514 118.788 66.077 118.633 64.8428C118.477 63.6086 118.324 62.408 118.173 61.2411C118.043 60.0798 117.92 59.0531 117.806 58.1611C117.691 57.2691 117.599 56.6259 117.528 56.2314C117.437 55.5002 117.272 54.9593 117.035 54.6086C116.803 54.2373 116.608 54.0192 116.448 53.9544L123.341 55.8014C123.191 55.7833 123.057 55.913 122.939 56.1905C122.841 56.4734 122.814 56.9853 122.859 57.726C122.894 58.0889 122.931 58.7726 122.971 59.7772C123.038 60.7667 123.111 61.9348 123.192 63.2817C123.273 64.6285 123.353 66.0193 123.432 67.454C123.532 68.8943 123.61 70.2514 123.667 71.5254L123.728 71.5419C124.341 70.4914 124.986 69.3612 125.664 68.1514C126.362 66.947 127.039 65.7811 127.694 64.6537C128.355 63.5056 128.934 62.5011 129.429 61.6401C129.951 60.764 130.316 60.1439 130.524 59.78C130.892 59.1497 131.094 58.6848 131.13 58.3853C131.166 58.0857 131.135 57.9119 131.038 57.8636L138.827 59.9508C138.703 59.9176 138.582 60.0398 138.464 60.3172C138.345 60.5947 138.292 61.1216 138.305 61.8981C138.314 62.276 138.318 62.9617 138.317 63.9553C138.342 64.9337 138.354 66.0853 138.352 67.41C138.356 68.7142 138.356 70.0726 138.353 71.4852C138.35 72.8979 138.349 74.2226 138.349 75.4594L138.41 75.476C139.132 74.4325 139.885 73.3093 140.672 72.1064C141.484 70.8885 142.259 69.7268 142.997 68.6215C143.761 67.501 144.419 66.5289 144.971 65.705C145.528 64.8606 145.906 64.277 146.103 63.9543C146.517 63.3144 146.732 62.8419 146.747 62.5369C146.783 62.2373 146.74 62.071 146.616 62.0379L153.478 63.8765C153.328 63.8585 153.078 63.9681 152.727 64.2054C152.382 64.4221 151.946 64.8133 151.419 65.3788C151.171 65.6437 150.78 66.1132 150.247 66.7873C149.718 67.4408 149.102 68.2144 148.399 69.1082C147.696 70.002 146.971 70.9342 146.225 71.9049C145.485 72.8549 144.773 73.7796 144.09 74.6789C143.434 75.5631 142.859 76.3477 142.366 77.0329C141.879 77.6974 141.542 78.1704 141.357 78.4519C140.968 79.0767 140.756 79.5389 140.72 79.8384C140.684 80.1379 140.725 80.3146 140.843 80.3683L133.703 78.4551C133.832 78.4676 133.956 78.3352 134.074 78.0577C134.193 77.7803 134.24 77.274 134.216 76.5387C134.207 76.1608 134.196 75.462 134.182 74.4423C134.173 73.4021 134.161 72.1728 134.143 70.7546C134.125 69.3364 134.111 67.8639 134.101 66.3372C134.116 64.7954 134.117 63.349 134.104 61.9982L134.042 61.9816C133.376 63.1502 132.653 64.4033 131.875 65.7409C131.103 67.0578 130.365 68.3288 129.661 69.5537C128.957 70.7786 128.342 71.8395 127.814 72.7362C127.308 73.6384 126.959 74.2406 126.767 74.5427C126.405 75.1524 126.203 75.6173 126.162 75.9375C126.126 76.237 126.156 76.4109 126.254 76.4591L119.083 74.5376ZM155.429 77.5847C155.285 77.546 155.179 77.2415 155.111 76.6711C155.043 76.1007 155.006 75.3731 155 74.4881C155.015 73.6086 155.049 72.657 155.102 71.6333C155.177 70.6151 155.276 69.6258 155.401 68.6654C155.546 67.7105 155.713 66.8827 155.901 66.1821C156.11 65.399 156.441 64.9466 156.894 64.8249C157.346 64.7031 158.005 64.7582 158.87 64.9901C159.736 65.222 160.321 65.5113 160.625 65.8579C160.956 66.1895 161.017 66.7468 160.807 67.5299C160.619 68.2305 160.339 69.0279 159.967 69.922C159.595 70.8162 159.176 71.7199 158.711 72.6332C158.271 73.5314 157.828 74.3623 157.38 75.1258C156.933 75.8893 156.527 76.4983 156.162 76.9527C155.818 77.4127 155.574 77.6233 155.429 77.5847ZM153.704 84.1458C152.942 83.9415 152.375 83.6241 152.005 83.1935C151.634 82.7629 151.546 82.187 151.739 81.4658C151.932 80.7446 152.287 80.2874 152.802 80.0942C153.338 79.9066 153.998 79.9177 154.781 80.1275C155.564 80.3373 156.131 80.6548 156.481 81.0798C156.851 81.5104 156.94 82.0863 156.746 82.8075C156.553 83.5287 156.188 83.9832 155.652 84.1708C155.137 84.3639 154.487 84.3556 153.704 84.1458Z" fill="white"/>
</svg>
