<svg width="403" height="488" viewBox="0 0 403 488" fill="none" xmlns="http://www.w3.org/2000/svg">
<path d="M402 330.586C324.17 311.966 185.742 317.179 254.678 487C221.322 439.517 142.38 373.041 93.4576 487C89.7514 445.103 58.4339 373.041 -37.1865 419.965C-11.243 380.862 14.5152 299.862 -90 288.69C-41.8192 272.862 31.7492 219.421 -59.4237 132.276C-1.05084 166.724 110.136 188.697 87.8983 1.00001C101.797 89.4483 171.288 227.241 338.068 70.8276C268.576 139.724 184.075 288.131 402 330.586Z" stroke="#15995F" stroke-width="3"/>
<path d="M402 330.586C324.17 311.966 185.742 317.179 254.678 487C221.322 439.517 142.38 373.041 93.4576 487C89.7514 445.103 58.4339 373.041 -37.1865 419.965C-11.243 380.862 14.5152 299.862 -90 288.69C-41.8192 272.862 31.7492 219.421 -59.4237 132.276C-1.05084 166.724 110.136 188.697 87.8983 1.00001C101.797 89.4483 171.288 227.241 338.068 70.8276C268.576 139.724 184.075 288.131 402 330.586Z" stroke="#29F031" stroke-width="3"/>
<path d="M402 330.586C324.17 311.966 185.742 317.179 254.678 487C221.322 439.517 142.38 373.041 93.4576 487C89.7514 445.103 58.4339 373.041 -37.1865 419.965C-11.243 380.862 14.5152 299.862 -90 288.69C-41.8192 272.862 31.7492 219.421 -59.4237 132.276C-1.05084 166.724 110.136 188.697 87.8983 1.00001C101.797 89.4483 171.288 227.241 338.068 70.8276C268.576 139.724 184.075 288.131 402 330.586Z" stroke="#2979F0" stroke-width="3"/>
<path d="M402 330.586C324.17 311.966 185.742 317.179 254.678 487C221.322 439.517 142.38 373.041 93.4576 487C89.7514 445.103 58.4339 373.041 -37.1865 419.965C-11.243 380.862 14.5152 299.862 -90 288.69C-41.8192 272.862 31.7492 219.421 -59.4237 132.276C-1.05084 166.724 110.136 188.697 87.8983 1.00001C101.797 89.4483 171.288 227.241 338.068 70.8276C268.576 139.724 184.075 288.131 402 330.586Z" stroke="#8129F0" stroke-width="3"/>
</svg>
